<svg xmlns="http://www.w3.org/2000/svg" width="845" height="162" viewBox="0 0 845 162" fill="none"><path d="M327.398 47.7194L325.385 24.5557L306.331 37.8815L327.398 47.7194ZM298.935 16.9824L300.066 15.3162L298.935 16.9824ZM225.743 7.96988L226.635 9.77532L225.743 7.96988ZM185.051 52.4858L183.294 51.5023C183.283 51.5222 183.272 51.5423 183.261 51.5625L185.051 52.4858ZM154.19 112.296L155.956 113.263C155.964 113.248 155.972 113.234 155.979 113.219L154.19 112.296ZM119.02 150.953L119.885 152.771C119.926 152.752 119.966 152.731 120.005 152.709L119.02 150.953ZM65.4916 158.053L65.757 156.057L65.4916 158.053ZM14.6942 125.827L13.0659 127.012L14.6942 125.827ZM8.13968 52.6353L10.0061 53.391L8.13968 52.6353ZM79.9661 4.8421L79.9661 6.8557L79.9661 4.8421ZM202.256 25.9948L203.803 27.2834L202.256 25.9948ZM266.709 4.84206L267.027 2.85377L266.709 4.84206ZM149.432 43.4684L148.303 41.8008L144.968 44.0577L146.097 45.7254L149.432 43.4684ZM141.633 39.523L142.858 41.1209L146.054 38.6704L144.828 37.0725L141.633 39.523ZM140.683 31.9631L139.37 30.4363L136.316 33.0621L137.629 34.5888L140.683 31.9631ZM132.459 29.0108L133.885 30.4334L136.73 27.5832L135.305 26.1606L132.459 29.0108ZM130.465 21.656L128.942 20.3383L126.307 23.3834L127.829 24.7011L130.465 21.656ZM121.883 20.0187L123.523 21.1872L125.86 17.9076L124.22 16.739L121.883 20.0187ZM118.658 13.119L116.925 12.0942L114.876 15.5608L116.609 16.5856L118.658 13.119ZM109.922 13.1008L111.755 13.933L113.42 10.2658L111.586 9.43361L109.922 13.1008ZM105.41 6.96689L103.508 6.30699L102.188 10.1118L104.091 10.7717L105.41 6.96689ZM96.8455 8.69732L98.8087 9.14526L99.7045 5.21898L97.7414 4.77104L96.8455 8.69732ZM91.2037 3.5807L89.2089 3.30653L88.6605 7.29623L90.6554 7.5704L91.2037 3.5807ZM83.1249 6.91577L85.137 6.9929L85.2913 2.96865L83.2792 2.89153L83.1249 6.91577ZM76.4067 2.89804L74.3946 2.97693L74.5524 7.00104L76.5645 6.92214L76.4067 2.89804ZM68.4424 7.63415L70.4372 7.36014L69.8892 3.3704L67.8944 3.64441L68.4424 7.63415ZM60.8783 4.91118L58.9138 5.35321L59.7979 9.28218L61.7624 8.84015L60.8783 4.91118ZM53.9314 11.0417L55.8379 10.3937L54.542 6.58072L52.6355 7.22868L53.9314 11.0417ZM45.9847 9.83464L44.1459 10.6552L45.787 14.3328L47.6258 13.5123L45.9847 9.83464ZM40.4117 17.2357L42.1452 16.2113L40.0963 12.7442L38.3627 13.7687L40.4117 17.2357ZM32.3883 17.701L30.7621 18.8884L33.1368 22.1409L34.7631 20.9536L32.3883 17.701ZM28.5022 26.1117L29.9789 24.7428L27.2411 21.7894L25.7644 23.1583L28.5022 26.1117ZM20.7597 28.2684L19.4214 29.773L22.4305 32.4495L23.7688 30.9449L20.7597 28.2684ZM18.7215 37.3097L19.8828 35.6648L16.5929 33.3421L15.4316 34.9871L18.7215 37.3097ZM11.583 40.9949L10.573 42.7368L14.0569 44.7568L15.0669 43.0149L11.583 40.9949ZM11.345 50.2637L12.1744 48.4288L8.50467 46.7701L7.67528 48.6049L11.345 50.2637ZM5.06239 55.2719L4.45372 57.1913L8.29254 58.4086L8.9012 56.4892L5.06239 55.2719ZM6.92769 64.3242L7.31953 62.3491L3.36931 61.5654L2.97747 63.5406L6.92769 64.3242ZM1.84996 70.5114L1.59626 72.5089L5.59136 73.0163L5.84507 71.0188L1.84996 70.5114ZM5.13515 79.1252L5.23282 77.114L1.21036 76.9186L1.11269 78.9298L5.13515 79.1252ZM1.00339 85.9826L1.03991 87.9958L5.06645 87.9228L5.02993 85.9095L1.00339 85.9826ZM5.52382 94.0184L5.31234 92.016L1.30741 92.4389L1.5189 94.4414L5.52382 94.0184ZM2.54439 101.449L2.91875 103.428L6.87574 102.679L6.50138 100.7L2.54439 101.449ZM8.435 108.535L7.8398 106.611L3.99256 107.801L4.58775 109.725L8.435 108.535ZM7.05788 116.418L7.8594 118.265L11.5538 116.662L10.7523 114.815L7.05788 116.418ZM14.4629 121.891L13.3929 120.185L9.98132 122.325L11.0513 124.031L14.4629 121.891ZM15.2376 129.874L16.487 131.453L19.6452 128.954L18.3958 127.375L15.2376 129.874ZM23.8042 133.562L22.406 132.113L19.508 134.91L20.9063 136.359L23.8042 133.562ZM26.1037 141.316L27.6175 142.643L30.2731 139.616L28.7593 138.288L26.1037 141.316ZM35.1984 143.384L33.558 142.216L31.2226 145.497L32.863 146.665L35.1984 143.384ZM38.8929 150.577L40.6282 151.599L42.6712 148.128L40.9359 147.107L38.8929 150.577ZM48.2139 150.881L46.3784 150.053L44.7224 153.724L46.5579 154.552L48.2139 150.881ZM53.2633 157.2L55.1703 157.846L56.4635 154.032L54.5566 153.386L53.2633 157.2ZM62.425 155.505L60.4497 155.114L59.668 159.065L61.6433 159.455L62.425 155.505ZM68.3627 160.429L70.3644 160.647L70.8006 156.644L68.7989 156.426L68.3627 160.429ZM76.1187 156.998L74.1072 156.905L73.9206 160.928L75.932 161.021L76.1187 156.998ZM82.2696 161.136L84.2831 161.114L84.2388 157.087L82.2253 157.109L82.2696 161.136ZM89.5339 156.758L87.5277 156.931L87.8744 160.943L89.8805 160.77L89.5339 156.758ZM96.1935 160.011L98.1834 159.703L97.5669 155.723L95.577 156.032L96.1935 160.011ZM102.732 154.609L100.776 155.087L101.732 158.999L103.688 158.521L102.732 154.609ZM109.817 156.781L111.732 156.158L110.487 152.328L108.572 152.951L109.817 156.781ZM115.388 150.386L113.538 151.181L115.127 154.881L116.977 154.087L115.388 150.386ZM122.673 151.133L124.384 150.071L122.261 146.649L120.55 147.711L122.673 151.133ZM126.312 143.712L124.718 144.941L127.177 148.131L128.771 146.901L126.312 143.712ZM133.508 142.939L135.001 141.588L132.299 138.601L130.806 139.952L133.508 142.939ZM135.82 135L134.448 136.474L137.396 139.218L138.768 137.744L135.82 135ZM142.807 133.112L144.082 131.553L140.965 129.003L139.69 130.562L142.807 133.112ZM143.984 124.927L142.817 126.567L146.099 128.901L147.266 127.26L143.984 124.927ZM150.685 122.188L151.77 120.492L148.378 118.322L147.293 120.018L150.685 122.188ZM150.973 113.924L149.975 115.672L153.472 117.67L154.47 115.921L150.973 113.924ZM157.382 110.501L158.305 108.711L154.727 106.865L153.803 108.654L157.382 110.501ZM157.17 102.129L156.247 103.919L159.825 105.765L160.749 103.976L157.17 102.129ZM163.554 98.5386L164.478 96.7492L160.899 94.9025L159.975 96.692L163.554 98.5386ZM163.342 90.1672L162.419 91.9567L165.998 93.8033L166.921 92.0139L163.342 90.1672ZM169.726 86.5766L170.65 84.7871L167.071 82.9405L166.148 84.7299L169.726 86.5766ZM169.514 78.2052L168.591 79.9946L172.17 81.8413L173.093 80.0518L169.514 78.2052ZM175.899 74.6146L176.822 72.8251L173.243 70.9785L172.32 72.7679L175.899 74.6146ZM175.686 66.2432L174.763 68.0326L178.342 69.8793L179.265 68.0898L175.686 66.2432ZM182.071 62.6525L182.994 60.8631L179.415 59.0165L178.492 60.8059L182.071 62.6525ZM181.859 54.2812L180.935 56.0706L184.514 57.9172L185.437 56.1278L181.859 54.2812ZM188.565 50.3448L189.558 48.5926L186.053 46.6084L185.061 48.3606L188.565 50.3448ZM189.433 40.8561L188.391 42.5793L191.837 44.6629L192.879 42.9398L189.433 40.8561ZM196.674 36.9333L197.787 35.2555L194.431 33.0288L193.318 34.7066L196.674 36.9333ZM198.414 27.5681L197.183 29.1615L200.37 31.6238L201.601 30.0305L198.414 27.5681ZM205.972 24.7923L207.329 23.3043L204.353 20.5909L202.997 22.0789L205.972 24.7923ZM209.026 16.2416L207.491 17.5439L210.095 20.6154L211.631 19.313L209.026 16.2416ZM216.863 15.3568L218.532 14.2308L216.28 10.8921L214.611 12.0181L216.863 15.3568ZM221.776 7.74047L219.999 8.68742L221.893 12.2415L223.67 11.2945L221.776 7.74047ZM229.338 8.62228L231.228 7.92611L229.835 4.14726L227.946 4.84343L229.338 8.62228ZM235.571 2.79671L233.592 3.16827L234.335 7.12632L236.314 6.75476L235.571 2.79671ZM242.376 5.9196L244.381 5.73283L244.007 1.72299L242.002 1.90976L242.376 5.9196ZM249.734 1.5356L247.72 1.54937L247.748 5.57648L249.761 5.56271L249.734 1.5356ZM255.941 5.71485L257.951 5.82601L258.174 1.80495L256.163 1.69379L255.941 5.71485ZM263.844 2.39583L261.847 2.14015L261.335 6.13476L263.333 6.39043L263.844 2.39583ZM270.146 7.54429L272.114 7.97379L272.973 4.03928L271.005 3.60977L270.146 7.54429ZM280.315 6.17797L278.402 5.54717L277.141 9.37165L279.053 10.0025L280.315 6.17797ZM286.29 12.6975L288.148 13.4716L289.697 9.75398L287.838 8.9798L286.29 12.6975ZM296.565 13.1715L294.808 12.1874L292.84 15.7008L294.597 16.6849L296.565 13.1715ZM300.333 20.449L301.947 21.6527L304.355 18.4242L302.741 17.2205L300.333 20.449ZM308.8 22.2187L307.308 20.8666L304.604 23.8508L306.096 25.2029L308.8 22.2187ZM310.576 29.5583L311.972 31.0095L314.874 28.2175L313.478 26.7663L310.576 29.5583ZM318.682 32.585L317.392 31.0388L314.3 33.6187L315.59 35.1648L318.682 32.585ZM319.492 40.0936L320.704 41.7019L323.92 39.2785L322.709 37.6702L319.492 40.0936ZM327.227 43.9612L326.08 42.3066L322.77 44.6015L323.918 46.2561L327.227 43.9612ZM151.24 46.2059C150.644 45.2814 150.041 44.3688 149.432 43.4684L146.097 45.7254C146.689 46.6003 147.275 47.4879 147.855 48.3878L151.24 46.2059ZM144.828 37.0725C143.478 35.3118 142.097 33.6078 140.683 31.9631L137.629 34.5888C138.992 36.1739 140.326 37.8194 141.633 39.523L144.828 37.0725ZM135.305 26.1606C133.73 24.5889 132.117 23.0863 130.465 21.656L127.829 24.7011C129.407 26.0665 130.95 27.5039 132.459 29.0108L135.305 26.1606ZM124.22 16.739C122.411 15.4498 120.558 14.2419 118.658 13.119L116.609 16.5856C118.407 17.6488 120.165 18.794 121.883 20.0187L124.22 16.739ZM111.586 9.43361C109.575 8.5208 107.517 7.69749 105.41 6.96689L104.091 10.7717C106.079 11.4614 108.022 12.2387 109.922 13.1008L111.586 9.43361ZM97.7414 4.77104C95.6074 4.2841 93.4285 3.88648 91.2037 3.5807L90.6554 7.5704C92.7649 7.86032 94.8277 8.2369 96.8455 8.69732L97.7414 4.77104ZM83.2792 2.89153C82.1851 2.84959 81.0808 2.8285 79.9661 2.8285L79.9661 6.8557C81.03 6.8557 82.0829 6.87583 83.1249 6.91577L83.2792 2.89153ZM79.9661 2.8285C78.7762 2.8285 77.5895 2.85165 76.4067 2.89804L76.5645 6.92214C77.6944 6.87784 78.8285 6.8557 79.9661 6.8557L79.9661 2.8285ZM67.8944 3.64441C65.5303 3.96912 63.1895 4.39115 60.8783 4.91118L61.7624 8.84015C63.9607 8.34552 66.1893 7.94362 68.4424 7.63415L67.8944 3.64441ZM52.6355 7.22868C50.3781 7.99589 48.159 8.86432 45.9847 9.83464L47.6258 13.5123C49.6855 12.5931 51.7894 11.7697 53.9314 11.0417L52.6355 7.22868ZM38.3627 13.7687C36.3165 14.9779 34.3229 16.2886 32.3883 17.701L34.7631 20.9536C36.5916 19.6185 38.4764 18.3794 40.4117 17.2357L38.3627 13.7687ZM25.7644 23.1583C24.0307 24.7654 22.3605 26.4687 20.7597 28.2684L23.7688 30.9449C25.2836 29.2418 26.8633 27.631 28.5022 26.1117L25.7644 23.1583ZM15.4316 34.9871C14.0785 36.9035 12.7941 38.9061 11.583 40.9949L15.0669 43.0149C16.2184 41.0289 17.4382 39.1273 18.7215 37.3097L15.4316 34.9871ZM7.67528 48.6049C7.19042 49.6776 6.72292 50.7691 6.27328 51.8795L10.0061 53.391C10.4358 52.3297 10.8823 51.2873 11.345 50.2637L7.67528 48.6049ZM6.27328 51.8795C5.86122 52.8972 5.45509 54.0335 5.06239 55.2719L8.9012 56.4892C9.26735 55.3345 9.63887 54.2979 10.0061 53.391L6.27328 51.8795ZM2.97747 63.5406C2.54457 65.7227 2.16153 68.0582 1.84996 70.5114L5.84507 71.0188C6.145 68.6572 6.51313 66.4139 6.92769 64.3242L2.97747 63.5406ZM1.11269 78.9298C1.0011 81.2277 0.959922 83.5863 1.00339 85.9826L5.02993 85.9095C4.98816 83.6069 5.02769 81.338 5.13515 79.1252L1.11269 78.9298ZM1.5189 94.4414C1.76502 96.7719 2.10266 99.1145 2.54439 101.449L6.50138 100.7C6.08138 98.4806 5.75919 96.2471 5.52382 94.0184L1.5189 94.4414ZM4.58775 109.725C5.28927 111.992 6.10841 114.23 7.05788 116.418L10.7523 114.815C9.86514 112.771 9.09611 110.671 8.435 108.535L4.58775 109.725ZM11.0513 124.031C11.6865 125.044 12.3575 126.038 13.0659 127.012L16.3224 124.643C15.6697 123.745 15.0503 122.828 14.4629 121.891L11.0513 124.031ZM13.0659 127.012C13.7766 127.989 14.5009 128.943 15.2376 129.874L18.3958 127.375C17.6926 126.486 17.0011 125.575 16.3224 124.643L13.0659 127.012ZM20.9063 136.359C22.5985 138.112 24.3347 139.764 26.1037 141.316L28.7593 138.288C27.0733 136.809 25.418 135.235 23.8042 133.562L20.9063 136.359ZM32.863 146.665C34.8551 148.083 36.8698 149.386 38.8929 150.577L40.9359 147.107C39.0122 145.974 37.0951 144.734 35.1984 143.384L32.863 146.665ZM46.5579 154.552C48.81 155.568 51.0516 156.45 53.2633 157.2L54.5566 153.386C52.4696 152.678 50.349 151.845 48.2139 150.881L46.5579 154.552ZM61.6433 159.455C62.8561 159.695 64.0517 159.893 65.2261 160.049L65.757 156.057C64.669 155.913 63.5571 155.729 62.425 155.505L61.6433 159.455ZM65.2261 160.049C66.2587 160.187 67.3045 160.314 68.3627 160.429L68.7989 156.426C67.7735 156.314 66.7592 156.191 65.757 156.057L65.2261 160.049ZM75.932 161.021C78.0105 161.118 80.125 161.159 82.2696 161.136L82.2253 157.109C80.1621 157.132 78.1247 157.091 76.1187 156.998L75.932 161.021ZM89.8805 160.77C91.966 160.59 94.0721 160.34 96.1935 160.011L95.577 156.032C93.549 156.346 91.533 156.585 89.5339 156.758L89.8805 160.77ZM103.688 158.521C105.724 158.024 107.769 157.446 109.817 156.781L108.572 152.951C106.622 153.584 104.674 154.135 102.732 154.609L103.688 158.521ZM116.977 154.087C117.947 153.67 118.917 153.232 119.885 152.771L118.155 149.134C117.233 149.573 116.311 149.99 115.388 150.386L116.977 154.087ZM120.005 152.709C120.911 152.201 121.8 151.675 122.673 151.133L120.55 147.711C119.726 148.222 118.888 148.718 118.035 149.197L120.005 152.709ZM128.771 146.901C130.413 145.635 131.991 144.311 133.508 142.939L130.806 139.952C129.364 141.257 127.867 142.513 126.312 143.712L128.771 146.901ZM138.768 137.744C140.172 136.236 141.517 134.689 142.807 133.112L139.69 130.562C138.451 132.076 137.162 133.559 135.82 135L138.768 137.744ZM147.266 127.26C148.457 125.585 149.596 123.891 150.685 122.188L147.293 120.018C146.236 121.669 145.134 123.309 143.984 124.927L147.266 127.26ZM154.47 115.921C154.977 115.033 155.473 114.147 155.956 113.263L152.424 111.329C151.951 112.193 151.468 113.058 150.973 113.924L154.47 115.921ZM155.979 113.219L157.382 110.501L153.803 108.654L152.401 111.373L155.979 113.219ZM160.749 103.976L163.554 98.5386L159.975 96.692L157.17 102.129L160.749 103.976ZM166.921 92.0139L169.726 86.5766L166.148 84.7299L163.342 90.1672L166.921 92.0139ZM173.093 80.0518L175.899 74.6146L172.32 72.7679L169.514 78.2052L173.093 80.0518ZM179.265 68.0898L182.071 62.6525L178.492 60.8059L175.686 66.2432L179.265 68.0898ZM185.437 56.1278L186.84 53.4092L183.261 51.5625L181.859 54.2812L185.437 56.1278ZM186.808 53.4694C187.392 52.4261 187.977 51.3843 188.565 50.3448L185.061 48.3606C184.468 49.408 183.879 50.4559 183.294 51.5023L186.808 53.4694ZM192.879 42.9398C194.107 40.9091 195.366 38.9036 196.674 36.9333L193.318 34.7066C191.974 36.7328 190.684 38.7871 189.433 40.8561L192.879 42.9398ZM201.601 30.0305C202.318 29.1022 203.052 28.1861 203.803 27.2834L200.709 24.7061C199.924 25.6485 199.16 26.603 198.414 27.5681L201.601 30.0305ZM203.803 27.2834C204.526 26.4161 205.248 25.5871 205.972 24.7923L202.997 22.0789C202.229 22.9202 201.468 23.7948 200.709 24.7061L203.803 27.2834ZM211.631 19.313C213.298 17.8992 215.029 16.5936 216.863 15.3568L214.611 12.0181C212.66 13.3337 210.811 14.728 209.026 16.2416L211.631 19.313ZM223.67 11.2945C224.627 10.7849 225.614 10.2797 226.635 9.77532L224.852 6.16444C223.797 6.68538 222.773 7.20951 221.776 7.74047L223.67 11.2945ZM226.635 9.77532C227.473 9.36162 228.375 8.97708 229.338 8.62228L227.946 4.84343C226.865 5.24182 225.83 5.68126 224.852 6.16444L226.635 9.77532ZM236.314 6.75476C238.241 6.39302 240.272 6.1156 242.376 5.9196L242.002 1.90976C239.789 2.11596 237.633 2.40948 235.571 2.79671L236.314 6.75476ZM249.761 5.56271C251.805 5.54873 253.874 5.60057 255.941 5.71485L256.163 1.69379C254.016 1.57507 251.864 1.52103 249.734 1.5356L249.761 5.56271ZM263.333 6.39043C264.362 6.52225 265.383 6.66906 266.391 6.83035L267.027 2.85377C265.977 2.68571 264.915 2.53291 263.844 2.39583L263.333 6.39043ZM266.391 6.83035C267.621 7.02725 268.876 7.26698 270.146 7.54429L271.005 3.60977C269.668 3.31779 268.338 3.06361 267.027 2.85377L266.391 6.83035ZM279.053 10.0025C281.546 10.8249 283.986 11.738 286.29 12.6975L287.838 8.9798C285.441 7.98173 282.906 7.03286 280.315 6.17797L279.053 10.0025ZM294.597 16.6849C295.797 17.3572 296.873 18.0166 297.804 18.6486L300.066 15.3162C299.022 14.6081 297.845 13.8888 296.565 13.1715L294.597 16.6849ZM297.804 18.6486C298.665 19.2326 299.508 19.8337 300.333 20.449L302.741 17.2205C301.869 16.5709 300.978 15.935 300.066 15.3162L297.804 18.6486ZM306.096 25.2029C307.674 26.6331 309.168 28.0945 310.576 29.5583L313.478 26.7663C312.012 25.2425 310.453 23.7163 308.8 22.2187L306.096 25.2029ZM315.59 35.1648C317.019 36.8779 318.32 38.5379 319.492 40.0936L322.709 37.6702C321.503 36.0702 320.16 34.3571 318.682 32.585L315.59 35.1648Z" fill="#BFDBFE"></path><path d="M176.365 109.445L178.606 132.588L197.528 119.076L176.365 109.445ZM250.65 158.877L250.76 160.887L250.65 158.877ZM320.018 121.461L318.33 120.363L320.018 121.461ZM354.975 52.9122L356.772 53.8216L354.975 52.9122ZM403.042 6.21115L402.486 4.27564C402.457 4.2839 402.429 4.29281 402.4 4.30235L403.042 6.21115ZM459.574 10.0349L460.503 8.24842L459.574 10.0349ZM497.536 46.9039L494.977 23.7941L476.243 37.5647L497.536 46.9039ZM176.791 113.506L177.971 115.137L181.234 112.778L180.054 111.146L176.791 113.506ZM185.105 117.903L183.872 116.311L180.688 118.777L181.921 120.369L185.105 117.903ZM186.389 125.947L187.675 127.496L190.774 124.924L189.488 123.375L186.389 125.947ZM195.001 129.702L193.64 128.219L190.673 130.942L192.034 132.425L195.001 129.702ZM197.021 137.597L198.457 139.009L201.281 136.138L199.846 134.726L197.021 137.597ZM205.999 140.358L204.462 139.057L201.861 142.131L203.398 143.432L205.999 140.358ZM209.085 147.894L210.717 149.075L213.077 145.812L211.446 144.632L209.085 147.894ZM218.393 149.118L216.643 148.122L214.652 151.623L216.403 152.619L218.393 149.118ZM222.92 155.889L224.766 156.693L226.375 153.001L224.529 152.197L222.92 155.889ZM232.259 154.944L230.318 154.407L229.244 158.289L231.185 158.825L232.259 154.944ZM238.348 160.34L240.34 160.634L240.929 156.65L238.937 156.356L238.348 160.34ZM247.111 156.958L245.097 156.954L245.089 160.981L247.103 160.985L247.111 156.958ZM253.915 160.688L255.923 160.545L255.637 156.528L253.628 156.671L253.915 160.688ZM260.998 155.976L258.999 156.215L259.478 160.214L261.477 159.974L260.998 155.976ZM267.768 159.06L269.752 158.718L269.067 154.749L267.083 155.092L267.768 159.06ZM274.268 153.575L272.316 154.069L273.305 157.973L275.257 157.479L274.268 153.575ZM281.399 155.676L283.308 155.034L282.023 151.217L280.114 151.86L281.399 155.676ZM286.891 149.182L285.06 150.021L286.739 153.682L288.569 152.843L286.891 149.182ZM294.289 149.89L296.032 148.882L294.017 145.395L292.274 146.403L294.289 149.89ZM298.349 142.413L296.731 143.612L299.129 146.847L300.747 145.649L298.349 142.413ZM305.731 141.591L307.235 140.252L304.556 137.245L303.053 138.584L305.731 141.591ZM308.258 133.461L306.891 134.94L309.849 137.673L311.216 136.194L308.258 133.461ZM315.379 131.349L316.637 129.778L313.494 127.26L312.235 128.832L315.379 131.349ZM316.621 122.917L315.479 124.576L318.796 126.86L319.938 125.201L316.621 122.917ZM323.614 119.59L324.692 117.89L321.291 115.732L320.213 117.433L323.614 119.59ZM324.579 110.326L323.55 112.057L327.012 114.115L328.041 112.383L324.579 110.326ZM331.57 106.266L332.554 104.51L329.04 102.542L328.057 104.299L331.57 106.266ZM332.017 96.9622L331.087 98.7486L334.66 100.607L335.589 98.8206L332.017 96.9622ZM338.767 92.5263L339.654 90.7184L336.038 88.9452L335.151 90.7531L338.767 92.5263ZM338.742 83.2056L337.896 85.0329L341.551 86.7244L342.396 84.897L338.742 83.2056ZM345.307 78.5053L346.133 76.669L342.461 75.0168L341.635 76.8532L345.307 78.5053ZM345.07 69.1865L344.245 71.0232L347.919 72.6738L348.744 70.8371L345.07 69.1865ZM351.633 64.4822L352.478 62.6542L348.822 60.9653L347.977 62.7932L351.633 64.4822ZM351.604 55.1624L350.717 56.97L354.332 58.7443L355.22 56.9367L351.604 55.1624ZM358.195 51.0715L359.136 49.2917L355.577 47.4084L354.635 49.1882L358.195 51.0715ZM358.357 42.5467L357.327 44.2774L360.789 46.3359L361.818 44.6053L358.357 42.5467ZM365.094 39.3871L366.208 37.7095L362.852 35.4823L361.739 37.16L365.094 39.3871ZM366.183 30.9326L364.956 32.5287L368.148 34.9841L369.375 33.3881L366.183 30.9326ZM373.268 28.6585L374.6 27.1484L371.58 24.4843L370.248 25.9943L373.268 28.6585ZM375.591 20.4571L374.127 21.8394L376.892 24.7676L378.356 23.3853L375.591 20.4571ZM382.953 19.3905L384.528 18.1354L382.017 14.9863L380.443 16.2414L382.953 19.3905ZM386.73 11.7531L385.031 12.8332L387.191 16.2321L388.89 15.152L386.73 11.7531ZM394.161 12.1302L395.952 11.2095L394.11 7.62797L392.319 8.54875L394.161 12.1302ZM399.37 5.39336L397.491 6.1165L398.937 9.87504L400.816 9.1519L399.37 5.39336ZM406.694 7.32884L408.651 6.8556L407.705 2.9412L405.747 3.41444L406.694 7.32884ZM413.684 1.89604L411.691 2.18109L412.261 6.16773L414.254 5.88269L413.684 1.89604ZM420.643 5.21318L422.652 5.07777L422.381 1.05968L420.372 1.19509L420.643 5.21318ZM428.436 1.00489L426.422 0.964657L426.342 4.99105L428.355 5.03129L428.436 1.00489ZM434.773 5.39472L436.777 5.58284L437.154 1.57325L435.149 1.38513L434.773 5.39472ZM443.146 2.51079L441.168 2.13515L440.417 6.09165L442.395 6.46729L443.146 2.51079ZM448.622 7.93209L450.559 8.48226L451.659 4.60829L449.722 4.05813L448.622 7.93209ZM457.409 6.77804L455.562 5.97608L453.958 9.67011L455.805 10.4721L457.409 6.77804ZM461.223 13.238L462.966 14.2474L464.985 10.7627L463.242 9.7533L461.223 13.238ZM469.514 13.8374L467.884 12.6553L465.52 15.9155L467.15 17.0976L469.514 13.8374ZM471.803 20.7512L473.341 22.0513L475.941 18.976L474.404 17.6759L471.803 20.7512ZM479.887 22.6869L478.45 21.2761L475.629 24.1498L477.066 25.5605L479.887 22.6869ZM481.214 29.849L482.578 31.3296L485.539 28.6003L484.175 27.1196L481.214 29.849ZM489.038 32.6642L487.745 31.1209L484.658 33.7075L485.951 35.2509L489.038 32.6642ZM489.736 39.9158L490.982 41.4979L494.146 39.0068L492.9 37.4247L489.736 39.9158ZM497.353 43.2557L496.153 41.639L492.919 44.0399L494.12 45.6566L497.353 43.2557ZM181.921 120.369C183.404 122.283 184.893 124.144 186.389 125.947L189.488 123.375C188.022 121.609 186.562 119.784 185.105 117.903L181.921 120.369ZM192.034 132.425C193.683 134.221 195.344 135.946 197.021 137.597L199.846 134.726C198.221 133.127 196.607 131.452 195.001 129.702L192.034 132.425ZM203.398 143.432C205.269 145.015 207.164 146.504 209.085 147.894L211.446 144.632C209.612 143.305 207.798 141.879 205.999 140.358L203.398 143.432ZM216.403 152.619C218.538 153.833 220.709 154.925 222.92 155.889L224.529 152.197C222.455 151.293 220.411 150.265 218.393 149.118L216.403 152.619ZM231.185 158.825C233.528 159.473 235.915 159.98 238.348 160.34L238.937 156.356C236.668 156.021 234.444 155.548 232.259 154.944L231.185 158.825ZM247.103 160.985C248.311 160.987 249.53 160.955 250.76 160.887L250.539 156.866C249.384 156.93 248.242 156.96 247.111 156.958L247.103 160.985ZM250.76 160.887C251.822 160.829 252.873 160.763 253.915 160.688L253.628 156.671C252.609 156.744 251.58 156.809 250.539 156.866L250.76 160.887ZM261.477 159.974C263.615 159.718 265.712 159.415 267.768 159.06L267.083 155.092C265.101 155.434 263.073 155.727 260.998 155.976L261.477 159.974ZM275.257 157.479C277.345 156.95 279.392 156.352 281.399 155.676L280.114 151.86C278.211 152.501 276.263 153.07 274.268 153.575L275.257 157.479ZM288.569 152.843C290.515 151.951 292.42 150.97 294.289 149.89L292.274 146.403C290.517 147.418 288.724 148.342 286.891 149.182L288.569 152.843ZM300.747 145.649C302.44 144.394 304.1 143.044 305.731 141.591L303.053 138.584C301.51 139.958 299.943 141.231 298.349 142.413L300.747 145.649ZM311.216 136.194C312.625 134.669 314.012 133.055 315.379 131.349L312.235 128.832C310.925 130.467 309.6 132.008 308.258 133.461L311.216 136.194ZM319.938 125.201C320.531 124.34 321.12 123.46 321.706 122.559L318.33 120.363C317.763 121.235 317.193 122.086 316.621 122.917L319.938 125.201ZM321.706 122.559C322.358 121.557 322.993 120.568 323.614 119.59L320.213 117.433C319.601 118.398 318.973 119.374 318.33 120.363L321.706 122.559ZM328.041 112.383C329.282 110.294 330.455 108.258 331.57 106.266L328.057 104.299C326.958 106.261 325.802 108.267 324.579 110.326L328.041 112.383ZM335.589 98.8206C336.704 96.6782 337.758 94.5834 338.767 92.5263L335.151 90.7531C334.155 92.7843 333.115 94.8505 332.017 96.9622L335.589 98.8206ZM342.396 84.897C343.394 82.7407 344.359 80.614 345.307 78.5053L341.635 76.8532C340.689 78.9548 339.731 81.0672 338.742 83.2056L342.396 84.897ZM348.744 70.8371C349.694 68.7221 350.651 66.6091 351.633 64.4822L347.977 62.7932C346.987 64.9381 346.024 67.0652 345.07 69.1865L348.744 70.8371ZM355.22 56.9367C355.726 55.9056 356.242 54.8678 356.772 53.8216L353.179 52.0029C352.641 53.0646 352.117 54.1173 351.604 55.1624L355.22 56.9367ZM356.772 53.8216C357.241 52.8953 357.715 51.9785 358.195 51.0715L354.635 49.1882C354.143 50.1174 353.658 51.0557 353.179 52.0029L356.772 53.8216ZM361.818 44.6053C362.881 42.8186 363.972 41.0784 365.094 39.3871L361.739 37.16C360.577 38.9101 359.451 40.7068 358.357 42.5467L361.818 44.6053ZM369.375 33.3881C370.633 31.7535 371.929 30.176 373.268 28.6585L370.248 25.9943C368.846 27.583 367.493 29.2304 366.183 30.9326L369.375 33.3881ZM378.356 23.3853C379.837 21.9865 381.368 20.6539 382.953 19.3905L380.443 16.2414C378.767 17.5773 377.151 18.9839 375.591 20.4571L378.356 23.3853ZM388.89 15.152C390.587 14.0734 392.343 13.0651 394.161 12.1302L392.319 8.54875C390.391 9.54016 388.53 10.6095 386.73 11.7531L388.89 15.152ZM400.816 9.1519C401.756 8.79035 402.711 8.44623 403.683 8.11994L402.4 4.30235C401.374 4.64703 400.364 5.01082 399.37 5.39336L400.816 9.1519ZM403.597 8.14666C404.623 7.85235 405.656 7.5799 406.694 7.32884L405.747 3.41444C404.655 3.67854 403.568 3.96541 402.486 4.27564L403.597 8.14666ZM414.254 5.88269C416.383 5.57832 418.517 5.35651 420.643 5.21318L420.372 1.19509C418.148 1.345 415.914 1.57711 413.684 1.89604L414.254 5.88269ZM428.355 5.03129C430.526 5.07467 432.671 5.19746 434.773 5.39472L435.149 1.38513C432.948 1.17862 430.705 1.05025 428.436 1.00489L428.355 5.03129ZM442.395 6.46729C444.552 6.87687 446.634 7.36749 448.622 7.93209L449.722 4.05813C447.614 3.45931 445.415 2.94161 443.146 2.51079L442.395 6.46729ZM455.805 10.4721C456.795 10.9016 457.742 11.3519 458.645 11.8214L460.503 8.24842C459.512 7.73315 458.48 7.24274 457.409 6.77804L455.805 10.4721ZM458.645 11.8214C459.513 12.2729 460.373 12.745 461.223 13.238L463.242 9.7533C462.339 9.23002 461.426 8.72846 460.503 8.24842L458.645 11.8214ZM467.15 17.0976C468.718 18.2346 470.266 19.4516 471.803 20.7512L474.404 17.6759C472.795 16.3155 471.167 15.0363 469.514 13.8374L467.15 17.0976ZM477.066 25.5605C478.449 26.9188 479.83 28.3477 481.214 29.849L484.175 27.1196C482.749 25.5731 481.322 24.0957 479.887 22.6869L477.066 25.5605ZM485.951 35.2509C487.204 36.7461 488.465 38.3007 489.736 39.9158L492.9 37.4247C491.606 35.7803 490.32 34.1938 489.038 32.6642L485.951 35.2509Z" fill="#3B82F6"></path><path d="M344.954 109.992L347.194 133.135L366.116 119.623L344.954 109.992ZM419.238 159.423L419.349 161.434L419.238 159.423ZM488.606 122.008L486.918 120.91L488.606 122.008ZM523.564 53.4591L525.36 54.3685L523.564 53.4591ZM571.63 6.75802L571.075 4.82251C571.046 4.83078 571.017 4.83968 570.989 4.84923L571.63 6.75802ZM628.163 10.5818L629.092 8.79529L628.163 10.5818ZM666.124 47.4508L663.565 24.341L644.831 38.1116L666.124 47.4508ZM345.379 114.053L346.559 115.684L349.822 113.325L348.643 111.693L345.379 114.053ZM353.693 118.449L352.46 116.858L349.276 119.324L350.509 120.915L353.693 118.449ZM354.978 126.494L356.264 128.043L359.363 125.471L358.077 123.922L354.978 126.494ZM363.59 130.249L362.228 128.766L359.261 131.489L360.623 132.972L363.59 130.249ZM365.61 138.143L367.045 139.556L369.869 136.685L368.434 135.273L365.61 138.143ZM374.588 140.904L373.051 139.604L370.449 142.678L371.986 143.979L374.588 140.904ZM377.674 148.441L379.305 149.622L381.665 146.359L380.034 145.178L377.674 148.441ZM386.982 149.665L385.231 148.669L383.241 152.17L384.991 153.165L386.982 149.665ZM391.508 156.435L393.354 157.24L394.963 153.548L393.117 152.744L391.508 156.435ZM400.847 155.491L398.906 154.954L397.833 158.835L399.773 159.372L400.847 155.491ZM406.937 160.886L408.929 161.181L409.517 157.197L407.525 156.902L406.937 160.886ZM415.699 157.505L413.686 157.501L413.678 161.528L415.691 161.532L415.699 157.505ZM422.503 161.235L424.512 161.092L424.225 157.075L422.217 157.218L422.503 161.235ZM429.586 156.523L427.587 156.762L428.067 160.761L430.066 160.521L429.586 156.523ZM436.357 159.607L438.341 159.265L437.656 155.296L435.671 155.639L436.357 159.607ZM442.857 154.122L440.905 154.616L441.893 158.52L443.845 158.026L442.857 154.122ZM449.988 156.223L451.896 155.581L450.611 151.764L448.703 152.407L449.988 156.223ZM455.479 149.729L453.649 150.568L455.327 154.229L457.157 153.39L455.479 149.729ZM462.877 150.437L464.621 149.429L462.606 145.942L460.862 146.95L462.877 150.437ZM466.937 142.96L465.319 144.159L467.717 147.394L469.335 146.195L466.937 142.96ZM474.319 142.138L475.823 140.799L473.145 137.792L471.641 139.131L474.319 142.138ZM476.846 134.008L475.48 135.487L478.438 138.22L479.804 136.741L476.846 134.008ZM483.967 131.896L485.226 130.324L482.083 127.807L480.824 129.378L483.967 131.896ZM485.21 123.464L484.068 125.122L487.384 127.407L488.526 125.748L485.21 123.464ZM492.202 120.137L493.281 118.436L489.88 116.279L488.801 117.98L492.202 120.137ZM493.167 110.873L492.138 112.604L495.6 114.661L496.629 112.93L493.167 110.873ZM500.159 106.813L501.143 105.056L497.629 103.089L496.645 104.846L500.159 106.813ZM500.605 97.5091L499.676 99.2955L503.249 101.154L504.178 99.3675L500.605 97.5091ZM507.356 93.0732L508.242 91.2653L504.626 89.4921L503.74 91.3L507.356 93.0732ZM507.33 83.7524L506.484 85.5798L510.139 87.2713L510.985 85.4439L507.33 83.7524ZM513.896 79.0522L514.722 77.2158L511.049 75.5637L510.223 77.4001L513.896 79.0522ZM513.659 69.7334L512.834 71.5701L516.507 73.2207L517.332 71.384L513.659 69.7334ZM520.222 65.0291L521.066 63.2011L517.41 61.5121L516.566 63.3401L520.222 65.0291ZM520.193 55.7093L519.305 57.5169L522.921 59.2912L523.808 57.4835L520.193 55.7093ZM526.783 51.6184L527.725 49.8385L524.165 47.9552L523.223 49.7351L526.783 51.6184ZM526.945 43.0936L525.916 44.8243L529.377 46.8828L530.406 45.1521L526.945 43.0936ZM533.682 39.934L534.796 38.2563L531.441 36.0292L530.327 37.7069L533.682 39.934ZM534.772 31.4795L533.544 33.0756L536.736 35.531L537.964 33.9349L534.772 31.4795ZM541.856 29.2053L543.188 27.6953L540.168 25.0312L538.836 26.5412L541.856 29.2053ZM544.179 21.0039L542.715 22.3863L545.48 25.3145L546.944 23.9321L544.179 21.0039ZM551.542 19.9374L553.116 18.6823L550.606 15.5332L549.031 16.7883L551.542 19.9374ZM555.319 12.3L553.619 13.3801L555.779 16.7789L557.479 15.6989L555.319 12.3ZM562.749 12.6771L564.54 11.7563L562.699 8.17485L560.908 9.09562L562.749 12.6771ZM567.959 5.94024L566.079 6.66337L567.526 10.4219L569.405 9.69878L567.959 5.94024ZM575.282 7.87572L577.239 7.40247L576.293 3.48808L574.336 3.96132L575.282 7.87572ZM582.272 2.44292L580.279 2.72796L580.849 6.71461L582.843 6.42956L582.272 2.44292ZM589.232 5.76005L591.241 5.62464L590.97 1.60656L588.961 1.74197L589.232 5.76005ZM597.024 1.55176L595.011 1.51153L594.93 5.53793L596.944 5.57816L597.024 1.55176ZM603.361 5.94159L605.366 6.12971L605.742 2.12013L603.737 1.93201L603.361 5.94159ZM611.735 3.05766L609.756 2.68202L609.005 6.63852L610.983 7.01417L611.735 3.05766ZM617.21 8.47897L619.147 9.02913L620.247 5.15517L618.31 4.605L617.21 8.47897ZM625.998 7.32491L624.151 6.52296L622.547 10.217L624.394 11.0189L625.998 7.32491ZM629.812 13.7849L631.554 14.7942L633.573 11.3095L631.831 10.3002L629.812 13.7849ZM638.102 14.3843L636.472 13.2022L634.108 16.4624L635.738 17.6445L638.102 14.3843ZM640.392 21.2981L641.929 22.5982L644.53 19.5229L642.992 18.2228L640.392 21.2981ZM648.475 23.2337L647.039 21.823L644.217 24.6966L645.654 26.1074L648.475 23.2337ZM649.802 30.3959L651.167 31.8765L654.128 29.1471L652.763 27.6665L649.802 30.3959ZM657.626 33.2111L656.333 31.6678L653.246 34.2544L654.54 35.7977L657.626 33.2111ZM658.325 40.4627L659.57 42.0448L662.734 39.5537L661.489 37.9715L658.325 40.4627ZM665.941 43.8026L664.741 42.1859L661.508 44.5868L662.708 46.2034L665.941 43.8026ZM350.509 120.915C351.992 122.83 353.481 124.691 354.978 126.494L358.077 123.922C356.611 122.156 355.15 120.331 353.693 118.449L350.509 120.915ZM360.623 132.972C362.271 134.768 363.932 136.493 365.61 138.143L368.434 135.273C366.809 133.674 365.195 131.998 363.59 130.249L360.623 132.972ZM371.986 143.979C373.858 145.562 375.752 147.051 377.674 148.441L380.034 145.178C378.201 143.852 376.386 142.426 374.588 140.904L371.986 143.979ZM384.991 153.165C387.126 154.38 389.297 155.472 391.508 156.435L393.117 152.744C391.043 151.84 388.999 150.812 386.982 149.665L384.991 153.165ZM399.773 159.372C402.117 160.02 404.503 160.527 406.937 160.886L407.525 156.902C405.257 156.568 403.032 156.095 400.847 155.491L399.773 159.372ZM415.691 161.532C416.899 161.534 418.118 161.502 419.349 161.434L419.127 157.413C417.972 157.476 416.83 157.507 415.699 157.505L415.691 161.532ZM419.349 161.434C420.41 161.376 421.461 161.31 422.503 161.235L422.217 157.218C421.198 157.291 420.168 157.356 419.127 157.413L419.349 161.434ZM430.066 160.521C432.204 160.265 434.3 159.962 436.357 159.607L435.671 155.639C433.689 155.981 431.662 156.274 429.586 156.523L430.066 160.521ZM443.845 158.026C445.934 157.497 447.981 156.899 449.988 156.223L448.703 152.407C446.799 153.048 444.852 153.617 442.857 154.122L443.845 158.026ZM457.157 153.39C459.103 152.498 461.009 151.516 462.877 150.437L460.862 146.95C459.106 147.965 457.312 148.889 455.479 149.729L457.157 153.39ZM469.335 146.195C471.028 144.941 472.689 143.591 474.319 142.138L471.641 139.131C470.099 140.504 468.532 141.778 466.937 142.96L469.335 146.195ZM479.804 136.741C481.213 135.216 482.6 133.602 483.967 131.896L480.824 129.378C479.514 131.014 478.188 132.555 476.846 134.008L479.804 136.741ZM488.526 125.748C489.119 124.887 489.708 124.007 490.294 123.106L486.918 120.91C486.351 121.782 485.782 122.633 485.21 123.464L488.526 125.748ZM490.294 123.106C490.946 122.104 491.582 121.115 492.202 120.137L488.801 117.98C488.189 118.945 487.562 119.921 486.918 120.91L490.294 123.106ZM496.629 112.93C497.87 110.841 499.044 108.805 500.159 106.813L496.645 104.846C495.546 106.808 494.39 108.814 493.167 110.873L496.629 112.93ZM504.178 99.3675C505.292 97.225 506.347 95.1303 507.356 93.0732L503.74 91.3C502.744 93.3311 501.703 95.3973 500.605 97.5091L504.178 99.3675ZM510.985 85.4439C511.983 83.2876 512.947 81.1609 513.896 79.0522L510.223 77.4001C509.278 79.5016 508.32 81.6141 507.33 83.7524L510.985 85.4439ZM517.332 71.384C518.283 69.269 519.239 67.156 520.222 65.0291L516.566 63.3401C515.575 65.4849 514.612 67.6121 513.659 69.7334L517.332 71.384ZM523.808 57.4835C524.314 56.4525 524.831 55.4146 525.36 54.3685L521.767 52.5497C521.23 53.6115 520.705 54.6642 520.193 55.7093L523.808 57.4835ZM525.36 54.3685C525.829 53.4421 526.303 52.5253 526.783 51.6184L523.223 49.7351C522.732 50.6642 522.247 51.6026 521.767 52.5497L525.36 54.3685ZM530.406 45.1521C531.469 43.3655 532.56 41.6253 533.682 39.934L530.327 37.7069C529.165 39.457 528.039 41.2537 526.945 43.0936L530.406 45.1521ZM537.964 33.9349C539.221 32.3003 540.517 30.7228 541.856 29.2053L538.836 26.5412C537.434 28.1299 536.081 29.7773 534.772 31.4795L537.964 33.9349ZM546.944 23.9321C548.426 22.5334 549.957 21.2008 551.542 19.9374L549.031 16.7883C547.355 18.1241 545.74 19.5307 544.179 21.0039L546.944 23.9321ZM557.479 15.6989C559.176 14.6203 560.931 13.612 562.749 12.6771L560.908 9.09562C558.98 10.087 557.118 11.1564 555.319 12.3L557.479 15.6989ZM569.405 9.69878C570.344 9.33722 571.3 8.99311 572.271 8.66682L570.989 4.84923C569.963 5.19391 568.953 5.5577 567.959 5.94024L569.405 9.69878ZM572.185 8.69353C573.211 8.39923 574.244 8.12678 575.282 7.87572L574.336 3.96132C573.244 4.22541 572.156 4.51228 571.075 4.82251L572.185 8.69353ZM582.843 6.42956C584.971 6.1252 587.105 5.90339 589.232 5.76005L588.961 1.74197C586.737 1.89188 584.503 2.12399 582.272 2.44292L582.843 6.42956ZM596.944 5.57816C599.115 5.62155 601.259 5.74433 603.361 5.94159L603.737 1.93201C601.537 1.7255 599.294 1.59712 597.024 1.55176L596.944 5.57816ZM610.983 7.01417C613.14 7.42374 615.222 7.91436 617.21 8.47897L618.31 4.605C616.202 4.00618 614.004 3.48848 611.735 3.05766L610.983 7.01417ZM624.394 11.0189C625.383 11.4484 626.331 11.8988 627.233 12.3683L629.092 8.79529C628.101 8.28003 627.068 7.78961 625.998 7.32491L624.394 11.0189ZM627.233 12.3683C628.102 12.8198 628.961 13.2919 629.812 13.7849L631.831 10.3002C630.927 9.7769 630.015 9.27533 629.092 8.79529L627.233 12.3683ZM635.738 17.6445C637.306 18.7815 638.855 19.9985 640.392 21.2981L642.992 18.2228C641.383 16.8624 639.756 15.5832 638.102 14.3843L635.738 17.6445ZM645.654 26.1074C647.037 27.4657 648.418 28.8945 649.802 30.3959L652.763 27.6665C651.338 26.1199 649.91 24.6426 648.475 23.2337L645.654 26.1074ZM654.54 35.7977C655.793 37.293 657.053 38.8475 658.325 40.4627L661.489 37.9715C660.194 36.3272 658.908 34.7406 657.626 33.2111L654.54 35.7977Z" fill="#1D4ED8"></path><path d="M517.602 115.501L519.615 138.665L538.669 125.339L517.602 115.501ZM546.065 146.238L544.934 147.905L546.065 146.238ZM619.257 155.251L618.365 153.445L619.257 155.251ZM659.949 110.735L661.706 111.718C661.717 111.699 661.728 111.678 661.739 111.658L659.949 110.735ZM690.81 50.9248L689.044 49.9582C689.036 49.9725 689.028 49.9869 689.021 50.0015L690.81 50.9248ZM725.98 12.268L725.115 10.4496C725.074 10.4691 725.034 10.4899 724.995 10.512L725.98 12.268ZM779.508 5.16727L779.243 7.1633L779.508 5.16727ZM830.306 37.3935L831.934 36.2089L830.306 37.3935ZM836.86 110.585L834.994 109.83L836.86 110.585ZM765.034 158.379L765.034 156.365L765.034 158.379ZM642.744 137.226L641.197 135.937L642.744 137.226ZM578.291 158.379L577.973 160.367L578.291 158.379ZM695.568 119.752L696.697 121.42L700.032 119.163L698.903 117.495L695.568 119.752ZM703.367 123.698L702.142 122.1L698.946 124.55L700.172 126.148L703.367 123.698ZM704.317 131.258L705.63 132.784L708.684 130.159L707.371 128.632L704.317 131.258ZM712.541 134.21L711.115 132.787L708.27 135.638L709.695 137.06L712.541 134.21ZM714.535 141.565L716.058 142.882L718.693 139.837L717.171 138.52L714.535 141.565ZM723.117 143.202L721.477 142.033L719.14 145.313L720.78 146.482L723.117 143.202ZM726.342 150.102L728.075 151.127L730.124 147.66L728.391 146.635L726.342 150.102ZM735.078 150.12L733.245 149.288L731.58 152.955L733.414 153.787L735.078 150.12ZM739.59 156.254L741.492 156.914L742.812 153.109L740.909 152.449L739.59 156.254ZM748.154 154.523L746.191 154.075L745.295 158.002L747.259 158.45L748.154 154.523ZM753.796 159.64L755.791 159.914L756.339 155.924L754.345 155.65L753.796 159.64ZM761.875 156.305L759.863 156.228L759.709 160.252L761.721 160.329L761.875 156.305ZM768.593 160.323L770.605 160.244L770.448 156.22L768.436 156.299L768.593 160.323ZM776.558 155.587L774.563 155.861L775.111 159.85L777.106 159.576L776.558 155.587ZM784.122 158.31L786.086 157.867L785.202 153.939L783.238 154.381L784.122 158.31ZM791.069 152.179L789.162 152.827L790.458 156.64L792.364 155.992L791.069 152.179ZM799.015 153.386L800.854 152.565L799.213 148.888L797.374 149.708L799.015 153.386ZM804.588 145.985L802.855 147.009L804.904 150.476L806.637 149.452L804.588 145.985ZM812.612 145.52L814.238 144.332L811.863 141.08L810.237 142.267L812.612 145.52ZM816.498 137.109L815.021 138.478L817.759 141.431L819.236 140.062L816.498 137.109ZM824.24 134.952L825.579 133.448L822.569 130.771L821.231 132.276L824.24 134.952ZM826.279 125.911L825.117 127.556L828.407 129.879L829.568 128.234L826.279 125.911ZM833.417 122.226L834.427 120.484L830.943 118.464L829.933 120.206L833.417 122.226ZM833.655 112.957L832.826 114.792L836.495 116.451L837.325 114.616L833.655 112.957ZM839.938 107.949L840.546 106.029L836.707 104.812L836.099 106.732L839.938 107.949ZM838.072 98.8965L837.68 100.872L841.631 101.655L842.023 99.6802L838.072 98.8965ZM843.15 92.7093L843.404 90.7118L839.409 90.2044L839.155 92.2019L843.15 92.7093ZM839.865 84.0955L839.767 86.1068L843.79 86.3021L843.887 84.2909L839.865 84.0955ZM843.997 77.2381L843.96 75.2249L839.934 75.2979L839.97 77.3112L843.997 77.2381ZM839.476 69.2023L839.688 71.2047L843.693 70.7818L843.481 68.7793L839.476 69.2023ZM842.456 61.7717L842.081 59.7932L838.124 60.5419L838.499 62.5204L842.456 61.7717ZM836.565 54.686L837.16 56.6096L841.007 55.4193L840.412 53.4956L836.565 54.686ZM837.942 46.8024L837.141 44.9552L833.446 46.5583L834.248 48.4055L837.942 46.8024ZM830.537 41.3296L831.607 43.0354L835.019 40.8954L833.949 39.1896L830.537 41.3296ZM829.762 33.347L828.513 31.7679L825.355 34.2668L826.604 35.8459L829.762 33.347ZM821.196 29.6585L822.594 31.1074L825.492 28.3109L824.094 26.862L821.196 29.6585ZM818.896 21.9051L817.383 20.5773L814.727 23.6049L816.241 24.9327L818.896 21.9051ZM809.802 19.8365L811.442 21.0042L813.777 17.7233L812.137 16.5556L809.802 19.8365ZM806.107 12.6435L804.372 11.622L802.329 15.0925L804.064 16.114L806.107 12.6435ZM796.786 12.3393L798.622 13.1673L800.278 9.49637L798.442 8.66837L796.786 12.3393ZM791.737 6.02109L789.83 5.37447L788.536 9.18837L790.443 9.83499L791.737 6.02109ZM782.575 7.71588L784.55 8.10678L785.332 4.15619L783.357 3.76529L782.575 7.71588ZM776.637 2.79155L774.636 2.57346L774.199 6.57697L776.201 6.79506L776.637 2.79155ZM768.881 6.22238L770.893 6.31572L771.079 2.29285L769.068 2.19951L768.881 6.22238ZM762.73 2.08482L760.717 2.10695L760.761 6.13391L762.775 6.11177L762.73 2.08482ZM755.466 6.46298L757.472 6.28966L757.126 2.2774L755.12 2.45071L755.466 6.46298ZM748.807 3.20932L746.817 3.51755L747.433 7.49728L749.423 7.18907L748.807 3.20932ZM742.268 8.61137L744.224 8.13353L743.268 4.22136L741.312 4.6992L742.268 8.61137ZM735.183 6.44L733.268 7.06233L734.513 10.8924L736.428 10.27L735.183 6.44ZM729.612 12.8344L731.462 12.0397L729.873 8.33943L728.023 9.13417L729.612 12.8344ZM722.327 12.0877L720.616 13.1494L722.739 16.5713L724.45 15.5095L722.327 12.0877ZM718.688 19.5088L720.282 18.2792L717.823 15.09L716.229 16.3196L718.688 19.5088ZM711.492 20.2821L709.999 21.6331L712.701 24.6193L714.194 23.2684L711.492 20.2821ZM709.18 28.2202L710.552 26.7463L707.604 24.0024L706.232 25.4763L709.18 28.2202ZM702.193 30.1088L700.918 31.6673L704.035 34.2174L705.31 32.659L702.193 30.1088ZM701.016 38.2942L702.183 36.6532L698.901 34.3193L697.734 35.9603L701.016 38.2942ZM694.315 41.0322L693.23 42.7283L696.622 44.8988L697.707 43.2027L694.315 41.0322ZM694.027 49.297L695.025 47.5486L691.528 45.5512L690.53 47.2997L694.027 49.297ZM687.618 52.7201L686.695 54.5095L690.273 56.3562L691.197 54.5667L687.618 52.7201ZM687.83 61.0915L688.753 59.302L685.175 57.4554L684.251 59.2448L687.83 61.0915ZM681.446 64.6821L680.522 66.4715L684.101 68.3182L685.025 66.5287L681.446 64.6821ZM681.658 73.0535L682.581 71.264L679.002 69.4174L678.079 71.2068L681.658 73.0535ZM675.274 76.6441L674.35 78.4336L677.929 80.2802L678.852 78.4908L675.274 76.6441ZM675.486 85.0155L676.409 83.2261L672.83 81.3794L671.907 83.1689L675.486 85.0155ZM669.101 88.6061L668.178 90.3956L671.757 92.2422L672.68 90.4528L669.101 88.6061ZM669.314 96.9775L670.237 95.1881L666.658 93.3414L665.735 95.1309L669.314 96.9775ZM662.929 100.568L662.006 102.358L665.585 104.204L666.508 102.415L662.929 100.568ZM663.141 108.94L664.065 107.15L660.486 105.303L659.563 107.093L663.141 108.94ZM656.435 112.876L655.442 114.628L658.947 116.612L659.939 114.86L656.435 112.876ZM655.567 122.365L656.609 120.641L653.163 118.558L652.121 120.281L655.567 122.365ZM648.326 126.287L647.213 127.965L650.569 130.192L651.682 128.514L648.326 126.287ZM646.586 135.653L647.817 134.059L644.63 131.597L643.399 133.19L646.586 135.653ZM639.028 138.428L637.671 139.916L640.647 142.63L642.003 141.142L639.028 138.428ZM635.974 146.979L637.509 145.677L634.905 142.605L633.369 143.908L635.974 146.979ZM628.137 147.864L626.468 148.99L628.72 152.329L630.389 151.203L628.137 147.864ZM623.224 155.48L625.001 154.533L623.107 150.979L621.33 151.926L623.224 155.48ZM615.662 154.598L613.772 155.295L615.165 159.073L617.054 158.377L615.662 154.598ZM609.429 160.424L611.408 160.052L610.665 156.094L608.686 156.466L609.429 160.424ZM602.624 157.301L600.619 157.488L600.993 161.498L602.998 161.311L602.624 157.301ZM595.266 161.685L597.28 161.671L597.252 157.644L595.239 157.658L595.266 161.685ZM589.059 157.506L587.049 157.395L586.826 161.416L588.837 161.527L589.059 157.506ZM581.156 160.825L583.153 161.081L583.665 157.086L581.667 156.83L581.156 160.825ZM574.854 155.676L572.886 155.247L572.027 159.181L573.995 159.611L574.854 155.676ZM564.685 157.043L566.598 157.674L567.859 153.849L565.947 153.218L564.685 157.043ZM558.71 150.523L556.852 149.749L555.303 153.467L557.162 154.241L558.71 150.523ZM548.435 150.049L550.192 151.033L552.16 147.52L550.403 146.536L548.435 150.049ZM544.667 142.772L543.053 141.568L540.645 144.797L542.259 146L544.667 142.772ZM536.2 141.002L537.692 142.354L540.396 139.37L538.904 138.018L536.2 141.002ZM534.424 133.662L533.028 132.211L530.126 135.003L531.522 136.454L534.424 133.662ZM526.318 130.636L527.608 132.182L530.7 129.602L529.41 128.056L526.318 130.636ZM525.508 123.127L524.296 121.519L521.08 123.942L522.291 125.55L525.508 123.127ZM517.773 119.259L518.92 120.914L522.23 118.619L521.082 116.965L517.773 119.259ZM693.76 117.015C694.356 117.939 694.959 118.852 695.568 119.752L698.903 117.495C698.311 116.62 697.725 115.733 697.145 114.833L693.76 117.015ZM700.172 126.148C701.522 127.909 702.903 129.613 704.317 131.258L707.371 128.632C706.008 127.047 704.674 125.401 703.367 123.698L700.172 126.148ZM709.695 137.06C711.27 138.632 712.883 140.134 714.535 141.565L717.171 138.52C715.593 137.154 714.05 135.717 712.541 134.21L709.695 137.06ZM720.78 146.482C722.589 147.771 724.442 148.979 726.342 150.102L728.391 146.635C726.593 145.572 724.835 144.427 723.117 143.202L720.78 146.482ZM733.414 153.787C735.425 154.7 737.483 155.523 739.59 156.254L740.909 152.449C738.921 151.759 736.978 150.982 735.078 150.12L733.414 153.787ZM747.259 158.45C749.393 158.937 751.571 159.334 753.796 159.64L754.345 155.65C752.235 155.36 750.172 154.984 748.154 154.523L747.259 158.45ZM761.721 160.329C762.815 160.371 763.919 160.392 765.034 160.392L765.034 156.365C763.97 156.365 762.917 156.345 761.875 156.305L761.721 160.329ZM765.034 160.392C766.224 160.392 767.41 160.369 768.593 160.323L768.436 156.299C767.306 156.343 766.172 156.365 765.034 156.365L765.034 160.392ZM777.106 159.576C779.47 159.252 781.81 158.83 784.122 158.31L783.238 154.381C781.039 154.875 778.811 155.277 776.558 155.587L777.106 159.576ZM792.364 155.992C794.622 155.225 796.841 154.356 799.015 153.386L797.374 149.708C795.314 150.628 793.211 151.451 791.069 152.179L792.364 155.992ZM806.637 149.452C808.683 148.243 810.677 146.932 812.612 145.52L810.237 142.267C808.408 143.602 806.524 144.841 804.588 145.985L806.637 149.452ZM819.236 140.062C820.969 138.455 822.639 136.752 824.24 134.952L821.231 132.276C819.716 133.979 818.137 135.59 816.498 137.109L819.236 140.062ZM829.568 128.234C830.921 126.317 832.206 124.315 833.417 122.226L829.933 120.206C828.782 122.192 827.562 124.093 826.279 125.911L829.568 128.234ZM837.325 114.616C837.81 113.543 838.277 112.452 838.727 111.341L834.994 109.83C834.564 110.891 834.118 111.933 833.655 112.957L837.325 114.616ZM838.727 111.341C839.139 110.324 839.545 109.187 839.938 107.949L836.099 106.732C835.733 107.886 835.361 108.923 834.994 109.83L838.727 111.341ZM842.023 99.6802C842.455 97.498 842.838 95.1625 843.15 92.7093L839.155 92.2019C838.855 94.5635 838.487 96.8068 838.072 98.8965L842.023 99.6802ZM843.887 84.2909C843.999 81.993 844.04 79.6344 843.997 77.2381L839.97 77.3112C840.012 79.6138 839.972 81.8827 839.865 84.0955L843.887 84.2909ZM843.481 68.7793C843.235 66.4488 842.897 64.1062 842.456 61.7717L838.499 62.5204C838.919 64.7401 839.241 66.9736 839.476 69.2023L843.481 68.7793ZM840.412 53.4956C839.711 51.2284 838.892 48.9906 837.942 46.8024L834.248 48.4055C835.135 50.45 835.904 52.5494 836.565 54.686L840.412 53.4956ZM833.949 39.1896C833.314 38.177 832.642 37.1825 831.934 36.2089L828.678 38.5781C829.33 39.4753 829.95 40.3931 830.537 41.3296L833.949 39.1896ZM831.934 36.2089C831.223 35.232 830.499 34.2782 829.762 33.347L826.604 35.8459C827.307 36.7346 827.999 37.6453 828.678 38.5781L831.934 36.2089ZM824.094 26.862C822.402 25.1084 820.665 23.4568 818.896 21.9051L816.241 24.9327C817.927 26.4116 819.582 27.9862 821.196 29.6585L824.094 26.862ZM812.137 16.5556C810.145 15.1377 808.13 13.8345 806.107 12.6435L804.064 16.114C805.988 17.2465 807.905 18.4864 809.802 19.8365L812.137 16.5556ZM798.442 8.66837C796.19 7.6524 793.948 6.77106 791.737 6.02109L790.443 9.83499C792.53 10.5427 794.651 11.3762 796.786 12.3393L798.442 8.66837ZM783.357 3.76529C782.144 3.52528 780.948 3.32741 779.774 3.17123L779.243 7.1633C780.331 7.30797 781.443 7.49185 782.575 7.71588L783.357 3.76529ZM779.774 3.17123C778.741 3.03394 777.696 2.90683 776.637 2.79155L776.201 6.79506C777.227 6.90677 778.241 7.03003 779.243 7.1633L779.774 3.17123ZM769.068 2.19951C766.99 2.10306 764.875 2.06125 762.73 2.08482L762.775 6.11177C764.838 6.0891 766.875 6.1293 768.881 6.22238L769.068 2.19951ZM755.12 2.45071C753.034 2.63091 750.928 2.88072 748.807 3.20932L749.423 7.18907C751.451 6.87492 753.467 6.63568 755.466 6.46298L755.12 2.45071ZM741.312 4.6992C739.276 5.19672 737.231 5.77441 735.183 6.44L736.428 10.27C738.378 9.63626 740.326 9.08577 742.268 8.61137L741.312 4.6992ZM728.023 9.13417C727.053 9.55077 726.083 9.98898 725.115 10.4496L726.845 14.0863C727.767 13.6479 728.689 13.2309 729.612 12.8344L728.023 9.13417ZM724.995 10.512C724.089 11.0202 723.2 11.5458 722.327 12.0877L724.45 15.5095C725.274 14.9983 726.112 14.5028 726.965 14.024L724.995 10.512ZM716.229 16.3196C714.587 17.5856 713.009 18.9096 711.492 20.2821L714.194 23.2684C715.636 21.9635 717.133 20.7076 718.688 19.5088L716.229 16.3196ZM706.232 25.4763C704.828 26.9847 703.483 28.5322 702.193 30.1088L705.31 32.659C706.549 31.1447 707.838 29.6622 709.18 28.2202L706.232 25.4763ZM697.734 35.9603C696.543 37.6356 695.404 39.3297 694.315 41.0322L697.707 43.2027C698.764 41.5514 699.866 39.912 701.016 38.2942L697.734 35.9603ZM690.53 47.2997C690.023 48.1874 689.527 49.074 689.044 49.9582L692.576 51.8913C693.049 51.0276 693.532 50.1624 694.027 49.297L690.53 47.2997ZM689.021 50.0015L687.618 52.7201L691.197 54.5667L692.599 51.8481L689.021 50.0015ZM684.251 59.2448L681.446 64.6821L685.025 66.5287L687.83 61.0915L684.251 59.2448ZM678.079 71.2068L675.274 76.6441L678.852 78.4908L681.658 73.0535L678.079 71.2068ZM671.907 83.1689L669.101 88.6061L672.68 90.4528L675.486 85.0155L671.907 83.1689ZM665.735 95.1309L662.929 100.568L666.508 102.415L669.314 96.9775L665.735 95.1309ZM659.563 107.093L658.16 109.812L661.739 111.658L663.141 108.94L659.563 107.093ZM658.192 109.751C657.608 110.795 657.023 111.836 656.435 112.876L659.939 114.86C660.532 113.813 661.121 112.765 661.706 111.718L658.192 109.751ZM652.121 120.281C650.893 122.312 649.634 124.317 648.326 126.287L651.682 128.514C653.026 126.488 654.316 124.434 655.567 122.365L652.121 120.281ZM643.399 133.19C642.682 134.118 641.948 135.035 641.197 135.937L644.291 138.515C645.076 137.572 645.84 136.618 646.586 135.653L643.399 133.19ZM641.197 135.937C640.474 136.805 639.752 137.634 639.028 138.428L642.003 141.142C642.771 140.3 643.532 139.426 644.291 138.515L641.197 135.937ZM633.369 143.908C631.702 145.321 629.971 146.627 628.137 147.864L630.389 151.203C632.34 149.887 634.189 148.493 635.974 146.979L633.369 143.908ZM621.33 151.926C620.373 152.436 619.386 152.941 618.365 153.445L620.148 157.056C621.203 156.535 622.227 156.011 623.224 155.48L621.33 151.926ZM618.365 153.445C617.527 153.859 616.625 154.244 615.662 154.598L617.054 158.377C618.135 157.979 619.17 157.539 620.148 157.056L618.365 153.445ZM608.686 156.466C606.759 156.828 604.728 157.105 602.624 157.301L602.998 161.311C605.211 161.105 607.367 160.811 609.429 160.424L608.686 156.466ZM595.239 157.658C593.195 157.672 591.126 157.62 589.059 157.506L588.837 161.527C590.984 161.646 593.136 161.7 595.266 161.685L595.239 157.658ZM581.667 156.83C580.638 156.698 579.617 156.552 578.609 156.39L577.973 160.367C579.023 160.535 580.085 160.688 581.156 160.825L581.667 156.83ZM578.609 156.39C577.379 156.193 576.124 155.954 574.854 155.676L573.995 159.611C575.332 159.903 576.662 160.157 577.973 160.367L578.609 156.39ZM565.947 153.218C563.454 152.396 561.014 151.483 558.71 150.523L557.162 154.241C559.559 155.239 562.094 156.188 564.685 157.043L565.947 153.218ZM550.403 146.536C549.203 145.863 548.127 145.204 547.196 144.572L544.934 147.905C545.978 148.613 547.155 149.332 548.435 150.049L550.403 146.536ZM547.196 144.572C546.335 143.988 545.492 143.387 544.667 142.772L542.259 146C543.131 146.65 544.022 147.286 544.934 147.905L547.196 144.572ZM538.904 138.018C537.326 136.588 535.832 135.126 534.424 133.662L531.522 136.454C532.988 137.978 534.547 139.504 536.2 141.002L538.904 138.018ZM529.41 128.056C527.981 126.343 526.68 124.683 525.508 123.127L522.291 125.55C523.497 127.15 524.84 128.864 526.318 130.636L529.41 128.056Z" fill="#172554"></path><g filter="url(#filter0_d_13_1171)"><path d="M76.0248 30L100.667 36.0737L119.663 52.9033L128.663 76.6334L125.604 101.828L111.187 122.714L88.7145 134.509H63.3351L40.8629 122.714L26.4458 101.828L23.3866 76.6334L32.3862 52.9033L51.3829 36.0737L76.0248 30Z" fill="#F1F0EE"></path><path d="M52.1673 37.5681L76.0248 31.6877L99.8823 37.5681L118.274 53.862L126.988 76.8368L124.026 101.229L110.068 121.451L88.3106 132.87H63.739L41.982 121.451L28.0238 101.229L25.062 76.8368L33.7752 53.862L52.1673 37.5681Z" stroke="#F6A114" stroke-width="3.27734"></path></g><path d="M52.0518 78V63.4545H57.62C58.6712 63.4545 59.5447 63.6203 60.2408 63.9517C60.9415 64.2784 61.4647 64.7259 61.8104 65.294C62.1607 65.8622 62.3359 66.5062 62.3359 67.2259C62.3359 67.8177 62.2223 68.3243 61.995 68.7457C61.7678 69.1624 61.4624 69.5009 61.0788 69.7614C60.6953 70.0218 60.2668 70.2088 59.7933 70.3224V70.4645C60.3094 70.4929 60.8042 70.6515 61.2777 70.9403C61.7559 71.2244 62.1465 71.6269 62.4496 72.1477C62.7526 72.6686 62.9041 73.2983 62.9041 74.0369C62.9041 74.7898 62.7218 75.4669 62.3572 76.0682C61.9927 76.6648 61.4434 77.1359 60.7095 77.4815C59.9756 77.8272 59.0523 78 57.9396 78H52.0518ZM54.6868 75.7983H57.5206C58.477 75.7983 59.166 75.616 59.5874 75.2514C60.0135 74.8821 60.2266 74.4086 60.2266 73.831C60.2266 73.4001 60.12 73.0118 59.907 72.6662C59.6939 72.3158 59.3909 72.0412 58.9979 71.8423C58.6049 71.6387 58.1361 71.5369 57.5916 71.5369H54.6868V75.7983ZM54.6868 69.6406H57.2933C57.7479 69.6406 58.1574 69.5578 58.522 69.392C58.8866 69.2216 59.1731 68.9825 59.3814 68.6747C59.5945 68.3622 59.701 67.9929 59.701 67.5668C59.701 67.0033 59.5021 66.5393 59.1044 66.1747C58.7114 65.8101 58.1267 65.6278 57.3501 65.6278H54.6868V69.6406ZM65.0827 78V67.0909H67.5756V68.9091H67.6893C67.8881 68.2794 68.229 67.794 68.712 67.4531C69.1997 67.1075 69.756 66.9347 70.381 66.9347C70.5231 66.9347 70.6817 66.9418 70.8569 66.956C71.0368 66.9654 71.186 66.982 71.3043 67.0057V69.3707C71.1954 69.3329 71.0226 69.2997 70.7859 69.2713C70.5539 69.2382 70.329 69.2216 70.1112 69.2216C69.6424 69.2216 69.221 69.3234 68.8469 69.527C68.4776 69.7259 68.1864 70.0028 67.9734 70.358C67.7603 70.7131 67.6538 71.1226 67.6538 71.5866V78H65.0827ZM75.9563 78.2202C75.265 78.2202 74.6424 78.0971 74.0884 77.8509C73.5392 77.5999 73.1036 77.2306 72.7816 76.7429C72.4644 76.2552 72.3058 75.6539 72.3058 74.9389C72.3058 74.3234 72.4194 73.8144 72.6467 73.4119C72.8739 73.0095 73.1841 72.6875 73.5771 72.446C73.9701 72.2045 74.4128 72.0223 74.9052 71.8991C75.4023 71.7713 75.9161 71.679 76.4464 71.6222C77.0856 71.5559 77.604 71.4967 78.0018 71.4446C78.3995 71.3878 78.6883 71.3026 78.8683 71.1889C79.0529 71.0705 79.1452 70.8883 79.1452 70.642V70.5994C79.1452 70.0644 78.9866 69.6501 78.6694 69.3565C78.3522 69.063 77.8952 68.9162 77.2987 68.9162C76.6689 68.9162 76.1694 69.0535 75.8001 69.3281C75.4355 69.6027 75.1893 69.9271 75.0614 70.3011L72.6609 69.9602C72.8503 69.2973 73.1628 68.7434 73.5984 68.2983C74.034 67.8485 74.5666 67.5123 75.1964 67.2898C75.8261 67.0625 76.5221 66.9489 77.2844 66.9489C77.81 66.9489 78.3332 67.0104 78.854 67.1335C79.3749 67.2566 79.8507 67.4602 80.2816 67.7443C80.7125 68.0237 81.0581 68.4048 81.3185 68.8878C81.5837 69.3707 81.7163 69.9744 81.7163 70.6989V78H79.2447V76.5014H79.1594C79.0032 76.8045 78.783 77.0885 78.4989 77.3537C78.2196 77.6141 77.8668 77.8248 77.4407 77.9858C77.0193 78.142 76.5245 78.2202 75.9563 78.2202ZM76.6239 76.331C77.14 76.331 77.5875 76.2292 77.9663 76.0256C78.3451 75.8172 78.6362 75.5426 78.8398 75.2017C79.0482 74.8608 79.1523 74.4891 79.1523 74.0866V72.8011C79.0719 72.8674 78.9345 72.929 78.7404 72.9858C78.551 73.0426 78.3379 73.0923 78.1012 73.1349C77.8645 73.1776 77.6301 73.2154 77.3981 73.2486C77.1661 73.2817 76.9648 73.3101 76.7944 73.3338C76.4109 73.3859 76.0676 73.4711 75.7646 73.5895C75.4615 73.7079 75.2224 73.8736 75.0472 74.0866C74.872 74.295 74.7844 74.5649 74.7844 74.8963C74.7844 75.3698 74.9573 75.7273 75.3029 75.9688C75.6486 76.2102 76.0889 76.331 76.6239 76.331ZM84.3015 78V67.0909H86.8725V78H84.3015ZM85.5941 65.5426C85.1869 65.5426 84.8365 65.4077 84.543 65.1378C84.2494 64.8632 84.1026 64.5341 84.1026 64.1506C84.1026 63.7623 84.2494 63.4332 84.543 63.1634C84.8365 62.8887 85.1869 62.7514 85.5941 62.7514C86.006 62.7514 86.3564 62.8887 86.6452 63.1634C86.9388 63.4332 87.0856 63.7623 87.0856 64.1506C87.0856 64.5341 86.9388 64.8632 86.6452 65.1378C86.3564 65.4077 86.006 65.5426 85.5941 65.5426ZM92.0874 71.608V78H89.5163V67.0909H91.9737V68.9446H92.1016C92.3525 68.3338 92.7526 67.8485 93.3018 67.4886C93.8558 67.1288 94.54 66.9489 95.3544 66.9489C96.1072 66.9489 96.763 67.1098 97.3217 67.4318C97.8852 67.7538 98.3208 68.2202 98.6286 68.831C98.9411 69.4418 99.0949 70.1828 99.0902 71.054V78H96.5192V71.4517C96.5192 70.7225 96.3298 70.152 95.951 69.7401C95.5769 69.3281 95.0585 69.1222 94.3956 69.1222C93.9458 69.1222 93.5457 69.2216 93.1953 69.4205C92.8497 69.6146 92.5774 69.8963 92.3786 70.2656C92.1844 70.6349 92.0874 71.0824 92.0874 71.608ZM57.1912 93.9744L54.8475 94.2301C54.7812 93.9934 54.6652 93.7708 54.4995 93.5625C54.3385 93.3542 54.1207 93.1861 53.8461 93.0582C53.5714 92.9304 53.2353 92.8665 52.8375 92.8665C52.3025 92.8665 51.8527 92.9825 51.4881 93.2145C51.1283 93.4465 50.9507 93.7472 50.9554 94.1165C50.9507 94.4337 51.0667 94.6918 51.3034 94.8906C51.5449 95.0895 51.9426 95.2528 52.4966 95.3807L54.3574 95.7784C55.3896 96.0009 56.1567 96.3537 56.6586 96.8366C57.1652 97.3196 57.4209 97.9517 57.4256 98.733C57.4209 99.4195 57.2196 100.026 56.8219 100.551C56.4289 101.072 55.882 101.479 55.1813 101.773C54.4805 102.066 53.6756 102.213 52.7665 102.213C51.4313 102.213 50.3565 101.934 49.5421 101.375C48.7277 100.812 48.2424 100.028 48.0861 99.0241L50.5932 98.7827C50.7069 99.2751 50.9483 99.6468 51.3176 99.8977C51.687 100.149 52.1676 100.274 52.7594 100.274C53.3702 100.274 53.8603 100.149 54.2296 99.8977C54.6036 99.6468 54.7907 99.3366 54.7907 98.9673C54.7907 98.6548 54.6699 98.3968 54.4284 98.1932C54.1917 97.9896 53.8224 97.8333 53.3205 97.7244L51.4597 97.3338C50.4133 97.116 49.6391 96.7491 49.1373 96.233C48.6354 95.7121 48.3868 95.054 48.3915 94.2585C48.3868 93.5862 48.5691 93.0038 48.9384 92.5114C49.3124 92.0142 49.8309 91.6307 50.4938 91.3608C51.1614 91.0862 51.9308 90.9489 52.802 90.9489C54.0804 90.9489 55.0866 91.2211 55.8205 91.7656C56.5591 92.3101 57.016 93.0464 57.1912 93.9744ZM64.9931 91.0909V93.0795H58.7218V91.0909H64.9931ZM60.2701 88.4773H62.8411V98.7188C62.8411 99.0644 62.8932 99.3295 62.9973 99.5142C63.1062 99.6941 63.2483 99.8172 63.4235 99.8835C63.5987 99.9498 63.7928 99.983 64.0059 99.983C64.1668 99.983 64.3136 99.9711 64.4462 99.9474C64.5835 99.9238 64.6877 99.9025 64.7587 99.8835L65.1919 101.893C65.0546 101.941 64.8581 101.993 64.6025 102.05C64.3515 102.107 64.0437 102.14 63.6792 102.149C63.0352 102.168 62.4552 102.071 61.9391 101.858C61.423 101.64 61.0134 101.304 60.7104 100.849C60.4121 100.395 60.2653 99.8267 60.2701 99.1449V88.4773ZM71.7846 102.213C70.7193 102.213 69.796 101.979 69.0147 101.51C68.2335 101.041 67.6274 100.385 67.1966 99.5426C66.7704 98.6998 66.5574 97.715 66.5574 96.5881C66.5574 95.4612 66.7704 94.474 67.1966 93.6264C67.6274 92.7789 68.2335 92.1207 69.0147 91.652C69.796 91.1832 70.7193 90.9489 71.7846 90.9489C72.85 90.9489 73.7733 91.1832 74.5545 91.652C75.3358 92.1207 75.9395 92.7789 76.3656 93.6264C76.7965 94.474 77.0119 95.4612 77.0119 96.5881C77.0119 97.715 76.7965 98.6998 76.3656 99.5426C75.9395 100.385 75.3358 101.041 74.5545 101.51C73.7733 101.979 72.85 102.213 71.7846 102.213ZM71.7988 100.153C72.3765 100.153 72.8594 99.9948 73.2477 99.6776C73.6359 99.3556 73.9248 98.9247 74.1142 98.3849C74.3083 97.8452 74.4054 97.2438 74.4054 96.581C74.4054 95.9134 74.3083 95.3097 74.1142 94.7699C73.9248 94.2254 73.6359 93.7921 73.2477 93.4702C72.8594 93.1482 72.3765 92.9872 71.7988 92.9872C71.207 92.9872 70.7145 93.1482 70.3216 93.4702C69.9333 93.7921 69.6421 94.2254 69.448 94.7699C69.2586 95.3097 69.1639 95.9134 69.1639 96.581C69.1639 97.2438 69.2586 97.8452 69.448 98.3849C69.6421 98.9247 69.9333 99.3556 70.3216 99.6776C70.7145 99.9948 71.207 100.153 71.7988 100.153ZM79.1941 102V91.0909H81.687V92.9091H81.8006C81.9995 92.2794 82.3404 91.794 82.8233 91.4531C83.311 91.1075 83.8674 90.9347 84.4924 90.9347C84.6344 90.9347 84.793 90.9418 84.9682 90.956C85.1481 90.9654 85.2973 90.982 85.4157 91.0057V93.3707C85.3068 93.3329 85.1339 93.2997 84.8972 93.2713C84.6652 93.2382 84.4403 93.2216 84.2225 93.2216C83.7537 93.2216 83.3323 93.3234 82.9583 93.527C82.589 93.7259 82.2978 94.0028 82.0847 94.358C81.8716 94.7131 81.7651 95.1226 81.7651 95.5866V102H79.1941ZM87.1238 102V91.0909H89.5811V92.9446H89.709C89.9363 92.3196 90.3127 91.8319 90.8382 91.4815C91.3638 91.1264 91.9912 90.9489 92.7203 90.9489C93.459 90.9489 94.0816 91.1288 94.5882 91.4886C95.0996 91.8437 95.4595 92.3291 95.6678 92.9446H95.7814C96.0229 92.3385 96.4301 91.8556 97.003 91.4957C97.5807 91.1312 98.2649 90.9489 99.0556 90.9489C100.059 90.9489 100.878 91.2661 101.513 91.9006C102.147 92.535 102.465 93.4607 102.465 94.6776V102H99.8865V95.0753C99.8865 94.3982 99.7066 93.9034 99.3468 93.5909C98.9869 93.2737 98.5466 93.1151 98.0257 93.1151C97.4055 93.1151 96.9202 93.3092 96.5698 93.6974C96.2241 94.081 96.0513 94.5805 96.0513 95.196V102H93.53V94.9688C93.53 94.4053 93.3596 93.9555 93.0186 93.6193C92.6825 93.2831 92.2421 93.1151 91.6976 93.1151C91.3283 93.1151 90.9921 93.2098 90.6891 93.3991C90.3861 93.5838 90.1446 93.8466 89.9647 94.1875C89.7847 94.5237 89.6948 94.9167 89.6948 95.3665V102H87.1238Z" fill="black"></path><g filter="url(#filter1_d_13_1171)"><path d="M254.025 30L278.667 36.0737L297.663 52.9033L306.663 76.6334L303.604 101.828L289.187 122.714L266.714 134.509H241.335L218.863 122.714L204.446 101.828L201.387 76.6334L210.386 52.9033L229.383 36.0737L254.025 30Z" fill="#F1F0EE"></path><path d="M230.167 37.5681L254.025 31.6877L277.882 37.5681L296.274 53.862L304.988 76.8368L302.026 101.229L288.068 121.451L266.311 132.87H241.739L219.982 121.451L206.024 101.229L203.062 76.8368L211.775 53.862L230.167 37.5681Z" stroke="#F6A114" stroke-width="3.27734"></path></g><path d="M228.364 90H223.435V75.4545H228.463C229.907 75.4545 231.148 75.7457 232.185 76.3281C233.226 76.9058 234.027 77.7367 234.585 78.821C235.144 79.9053 235.423 81.2027 235.423 82.7131C235.423 84.2282 235.142 85.5303 234.578 86.6193C234.019 87.7083 233.212 88.544 232.156 89.1264C231.105 89.7088 229.841 90 228.364 90ZM226.07 87.7202H228.236C229.249 87.7202 230.094 87.5355 230.771 87.1662C231.448 86.7921 231.957 86.2358 232.298 85.4972C232.639 84.7538 232.81 83.8258 232.81 82.7131C232.81 81.6004 232.639 80.6771 232.298 79.9432C231.957 79.2045 231.453 78.6529 230.786 78.2884C230.123 77.919 229.299 77.7344 228.314 77.7344H226.07V87.7202ZM242.643 90.2131C241.549 90.2131 240.604 89.9858 239.809 89.5312C239.018 89.072 238.41 88.4233 237.984 87.5852C237.558 86.7424 237.344 85.7505 237.344 84.6094C237.344 83.4872 237.558 82.5024 237.984 81.6548C238.415 80.8026 239.016 80.1397 239.788 79.6662C240.559 79.188 241.466 78.9489 242.508 78.9489C243.18 78.9489 243.815 79.0578 244.411 79.2756C245.013 79.4886 245.543 79.8201 246.002 80.2699C246.466 80.7197 246.831 81.2926 247.096 81.9886C247.361 82.6799 247.494 83.5038 247.494 84.4602V85.2486H238.552V83.5156H245.029C245.024 83.0232 244.918 82.5852 244.71 82.2017C244.501 81.8134 244.21 81.508 243.836 81.2855C243.467 81.063 243.036 80.9517 242.543 80.9517C242.018 80.9517 241.556 81.0795 241.158 81.3352C240.761 81.5862 240.451 81.9176 240.228 82.3295C240.01 82.7367 239.899 83.1842 239.894 83.6719V85.1847C239.894 85.8191 240.01 86.3636 240.242 86.8182C240.474 87.268 240.799 87.6136 241.215 87.8551C241.632 88.0919 242.12 88.2102 242.678 88.2102C243.052 88.2102 243.391 88.1581 243.694 88.054C243.997 87.9451 244.26 87.7865 244.482 87.5781C244.705 87.3698 244.873 87.1117 244.987 86.804L247.387 87.0739C247.236 87.7083 246.947 88.2623 246.521 88.7358C246.099 89.2045 245.559 89.5691 244.901 89.8295C244.243 90.0852 243.49 90.2131 242.643 90.2131ZM255.194 79.0909V81.0795H248.745V79.0909H255.194ZM250.358 90V78.0611C250.358 77.3272 250.509 76.7164 250.812 76.2287C251.12 75.741 251.532 75.3764 252.048 75.1349C252.564 74.8935 253.137 74.7727 253.767 74.7727C254.212 74.7727 254.607 74.8082 254.953 74.8793C255.298 74.9503 255.554 75.0142 255.72 75.071L255.208 77.0597C255.1 77.0265 254.962 76.9934 254.797 76.9602C254.631 76.9223 254.446 76.9034 254.243 76.9034C253.764 76.9034 253.426 77.0194 253.227 77.2514C253.033 77.4787 252.936 77.8054 252.936 78.2315V90H250.358ZM257.208 90V79.0909H259.779V90H257.208ZM258.5 77.5426C258.093 77.5426 257.743 77.4077 257.449 77.1378C257.156 76.8632 257.009 76.5341 257.009 76.1506C257.009 75.7623 257.156 75.4332 257.449 75.1634C257.743 74.8887 258.093 74.7514 258.5 74.7514C258.912 74.7514 259.263 74.8887 259.551 75.1634C259.845 75.4332 259.992 75.7623 259.992 76.1506C259.992 76.5341 259.845 76.8632 259.551 77.1378C259.263 77.4077 258.912 77.5426 258.5 77.5426ZM264.994 83.608V90H262.423V79.0909H264.88V80.9446H265.008C265.259 80.3338 265.659 79.8485 266.208 79.4886C266.762 79.1288 267.446 78.9489 268.261 78.9489C269.013 78.9489 269.669 79.1098 270.228 79.4318C270.791 79.7538 271.227 80.2202 271.535 80.831C271.847 81.4418 272.001 82.1828 271.996 83.054V90H269.425V83.4517C269.425 82.7225 269.236 82.152 268.857 81.7401C268.483 81.3281 267.965 81.1222 267.302 81.1222C266.852 81.1222 266.452 81.2216 266.102 81.4205C265.756 81.6146 265.484 81.8963 265.285 82.2656C265.091 82.6349 264.994 83.0824 264.994 83.608ZM279.44 90.2131C278.346 90.2131 277.401 89.9858 276.606 89.5312C275.815 89.072 275.207 88.4233 274.781 87.5852C274.354 86.7424 274.141 85.7505 274.141 84.6094C274.141 83.4872 274.354 82.5024 274.781 81.6548C275.211 80.8026 275.813 80.1397 276.585 79.6662C277.356 79.188 278.263 78.9489 279.305 78.9489C279.977 78.9489 280.612 79.0578 281.208 79.2756C281.809 79.4886 282.34 79.8201 282.799 80.2699C283.263 80.7197 283.628 81.2926 283.893 81.9886C284.158 82.6799 284.29 83.5038 284.29 84.4602V85.2486H275.349V83.5156H281.826C281.821 83.0232 281.715 82.5852 281.506 82.2017C281.298 81.8134 281.007 81.508 280.633 81.2855C280.263 81.063 279.833 80.9517 279.34 80.9517C278.815 80.9517 278.353 81.0795 277.955 81.3352C277.558 81.5862 277.247 81.9176 277.025 82.3295C276.807 82.7367 276.696 83.1842 276.691 83.6719V85.1847C276.691 85.8191 276.807 86.3636 277.039 86.8182C277.271 87.268 277.595 87.6136 278.012 87.8551C278.429 88.0919 278.916 88.2102 279.475 88.2102C279.849 88.2102 280.188 88.1581 280.491 88.054C280.794 87.9451 281.057 87.7865 281.279 87.5781C281.502 87.3698 281.67 87.1117 281.783 86.804L284.184 87.0739C284.032 87.7083 283.744 88.2623 283.317 88.7358C282.896 89.2045 282.356 89.5691 281.698 89.8295C281.04 90.0852 280.287 90.2131 279.44 90.2131Z" fill="black"></path><g filter="url(#filter2_d_13_1171)"><path d="M425.025 29L449.667 35.0737L468.663 51.9033L477.663 75.6334L474.604 100.828L460.187 121.714L437.714 133.509H412.335L389.863 121.714L375.446 100.828L372.387 75.6334L381.386 51.9033L400.383 35.0737L425.025 29Z" fill="#F1F0EE"></path><path d="M401.167 36.5681L425.025 30.6877L448.882 36.5681L467.274 52.862L475.988 75.8368L473.026 100.229L459.068 120.451L437.311 131.87H412.739L390.982 120.451L377.024 100.229L374.062 75.8368L382.775 52.862L401.167 36.5681Z" stroke="#F6A114" stroke-width="3.27734"></path></g><path d="M397.364 89H392.435V74.4545H397.463C398.907 74.4545 400.148 74.7457 401.185 75.3281C402.226 75.9058 403.027 76.7367 403.585 77.821C404.144 78.9053 404.423 80.2027 404.423 81.7131C404.423 83.2282 404.142 84.5303 403.578 85.6193C403.019 86.7083 402.212 87.544 401.156 88.1264C400.105 88.7088 398.841 89 397.364 89ZM395.07 86.7202H397.236C398.249 86.7202 399.094 86.5355 399.771 86.1662C400.448 85.7921 400.957 85.2358 401.298 84.4972C401.639 83.7538 401.81 82.8258 401.81 81.7131C401.81 80.6004 401.639 79.6771 401.298 78.9432C400.957 78.2045 400.453 77.6529 399.786 77.2884C399.123 76.919 398.299 76.7344 397.314 76.7344H395.07V86.7202ZM411.643 89.2131C410.549 89.2131 409.604 88.9858 408.809 88.5312C408.018 88.072 407.41 87.4233 406.984 86.5852C406.558 85.7424 406.344 84.7505 406.344 83.6094C406.344 82.4872 406.558 81.5024 406.984 80.6548C407.415 79.8026 408.016 79.1397 408.788 78.6662C409.559 78.188 410.466 77.9489 411.508 77.9489C412.18 77.9489 412.815 78.0578 413.411 78.2756C414.013 78.4886 414.543 78.8201 415.002 79.2699C415.466 79.7197 415.831 80.2926 416.096 80.9886C416.361 81.6799 416.494 82.5038 416.494 83.4602V84.2486H407.552V82.5156H414.029C414.024 82.0232 413.918 81.5852 413.71 81.2017C413.501 80.8134 413.21 80.508 412.836 80.2855C412.467 80.063 412.036 79.9517 411.543 79.9517C411.018 79.9517 410.556 80.0795 410.158 80.3352C409.761 80.5862 409.451 80.9176 409.228 81.3295C409.01 81.7367 408.899 82.1842 408.894 82.6719V84.1847C408.894 84.8191 409.01 85.3636 409.242 85.8182C409.474 86.268 409.799 86.6136 410.215 86.8551C410.632 87.0919 411.12 87.2102 411.678 87.2102C412.052 87.2102 412.391 87.1581 412.694 87.054C412.997 86.9451 413.26 86.7865 413.482 86.5781C413.705 86.3698 413.873 86.1117 413.987 85.804L416.387 86.0739C416.236 86.7083 415.947 87.2623 415.521 87.7358C415.099 88.2045 414.559 88.5691 413.901 88.8295C413.243 89.0852 412.49 89.2131 411.643 89.2131ZM427.291 80.9744L424.947 81.2301C424.881 80.9934 424.765 80.7708 424.599 80.5625C424.438 80.3542 424.22 80.1861 423.946 80.0582C423.671 79.9304 423.335 79.8665 422.937 79.8665C422.402 79.8665 421.952 79.9825 421.588 80.2145C421.228 80.4465 421.05 80.7472 421.055 81.1165C421.05 81.4337 421.166 81.6918 421.403 81.8906C421.645 82.0895 422.042 82.2528 422.596 82.3807L424.457 82.7784C425.489 83.0009 426.256 83.3537 426.758 83.8366C427.265 84.3196 427.52 84.9517 427.525 85.733C427.52 86.4195 427.319 87.0256 426.922 87.5511C426.529 88.072 425.982 88.4792 425.281 88.7727C424.58 89.0663 423.775 89.2131 422.866 89.2131C421.531 89.2131 420.456 88.9337 419.642 88.375C418.827 87.8116 418.342 87.0279 418.186 86.0241L420.693 85.7827C420.806 86.2751 421.048 86.6468 421.417 86.8977C421.787 87.1487 422.267 87.2741 422.859 87.2741C423.47 87.2741 423.96 87.1487 424.329 86.8977C424.703 86.6468 424.89 86.3366 424.89 85.9673C424.89 85.6548 424.77 85.3968 424.528 85.1932C424.291 84.9896 423.922 84.8333 423.42 84.7244L421.559 84.3338C420.513 84.116 419.739 83.7491 419.237 83.233C418.735 82.7121 418.486 82.054 418.491 81.2585C418.486 80.5862 418.669 80.0038 419.038 79.5114C419.412 79.0142 419.931 78.6307 420.593 78.3608C421.261 78.0862 422.03 77.9489 422.902 77.9489C424.18 77.9489 425.186 78.2211 425.92 78.7656C426.659 79.3101 427.116 80.0464 427.291 80.9744ZM429.645 89V78.0909H432.216V89H429.645ZM430.938 76.5426C430.531 76.5426 430.18 76.4077 429.887 76.1378C429.593 75.8632 429.446 75.5341 429.446 75.1506C429.446 74.7623 429.593 74.4332 429.887 74.1634C430.18 73.8887 430.531 73.7514 430.938 73.7514C431.35 73.7514 431.7 73.8887 431.989 74.1634C432.283 74.4332 432.429 74.7623 432.429 75.1506C432.429 75.5341 432.283 75.8632 431.989 76.1378C431.7 76.4077 431.35 76.5426 430.938 76.5426ZM439.604 93.3182C438.681 93.3182 437.888 93.1927 437.225 92.9418C436.562 92.6955 436.03 92.3641 435.627 91.9474C435.225 91.5308 434.945 91.0691 434.789 90.5625L437.104 90.0014C437.209 90.2145 437.36 90.4252 437.559 90.6335C437.758 90.8466 438.025 91.0218 438.362 91.1591C438.702 91.3011 439.131 91.3722 439.647 91.3722C440.376 91.3722 440.98 91.1946 441.458 90.8395C441.936 90.4891 442.175 89.9115 442.175 89.1065V87.0398H442.048C441.915 87.3049 441.721 87.5772 441.465 87.8565C441.214 88.1359 440.88 88.3703 440.464 88.5597C440.052 88.7491 439.533 88.8438 438.908 88.8438C438.07 88.8438 437.31 88.6473 436.629 88.2543C435.951 87.8565 435.412 87.2647 435.009 86.4787C434.612 85.688 434.413 84.6984 434.413 83.5099C434.413 82.312 434.612 81.3011 435.009 80.4773C435.412 79.6487 435.954 79.0213 436.636 78.5952C437.317 78.1643 438.077 77.9489 438.915 77.9489C439.555 77.9489 440.08 78.0578 440.492 78.2756C440.909 78.4886 441.24 78.7467 441.487 79.0497C441.733 79.348 441.92 79.6297 442.048 79.8949H442.19V78.0909H444.725V89.1776C444.725 90.1103 444.503 90.8821 444.058 91.4929C443.612 92.1037 443.004 92.5606 442.232 92.8636C441.46 93.1667 440.585 93.3182 439.604 93.3182ZM439.626 86.8267C440.17 86.8267 440.634 86.6941 441.018 86.429C441.401 86.1638 441.692 85.7827 441.891 85.2855C442.09 84.7884 442.19 84.1918 442.19 83.4957C442.19 82.8092 442.09 82.2079 441.891 81.6918C441.697 81.1757 441.408 80.7756 441.025 80.4915C440.646 80.2027 440.18 80.0582 439.626 80.0582C439.053 80.0582 438.575 80.2074 438.191 80.5057C437.808 80.804 437.519 81.2135 437.325 81.7344C437.13 82.2505 437.033 82.8376 437.033 83.4957C437.033 84.1634 437.13 84.7481 437.325 85.25C437.523 85.7472 437.815 86.1354 438.198 86.4148C438.586 86.6894 439.062 86.8267 439.626 86.8267ZM449.931 82.608V89H447.36V78.0909H449.817V79.9446H449.945C450.196 79.3338 450.596 78.8485 451.146 78.4886C451.7 78.1288 452.384 77.9489 453.198 77.9489C453.951 77.9489 454.607 78.1098 455.165 78.4318C455.729 78.7538 456.165 79.2202 456.472 79.831C456.785 80.4418 456.939 81.1828 456.934 82.054V89H454.363V82.4517C454.363 81.7225 454.174 81.152 453.795 80.7401C453.421 80.3281 452.902 80.1222 452.239 80.1222C451.79 80.1222 451.389 80.2216 451.039 80.4205C450.693 80.6146 450.421 80.8963 450.222 81.2656C450.028 81.6349 449.931 82.0824 449.931 82.608Z" fill="black"></path><g filter="url(#filter3_d_13_1171)"><path d="M591.025 29L615.667 35.0737L634.663 51.9033L643.663 75.6334L640.604 100.828L626.187 121.714L603.714 133.509H578.335L555.863 121.714L541.446 100.828L538.387 75.6334L547.386 51.9033L566.383 35.0737L591.025 29Z" fill="#F1F0EE"></path><path d="M567.167 36.5681L591.025 30.6877L614.882 36.5681L633.274 52.862L641.988 75.8368L639.026 100.229L625.068 120.451L603.311 131.87H578.739L556.982 120.451L543.024 100.229L540.062 75.8368L548.775 52.862L567.167 36.5681Z" stroke="#F6A114" stroke-width="3.27734"></path></g><path d="M569.795 76.6634V74.4545H581.401V76.6634H576.905V89H574.291V76.6634H569.795ZM586.772 89.2131C585.678 89.2131 584.733 88.9858 583.938 88.5312C583.147 88.072 582.539 87.4233 582.113 86.5852C581.686 85.7424 581.473 84.7505 581.473 83.6094C581.473 82.4872 581.686 81.5024 582.113 80.6548C582.543 79.8026 583.145 79.1397 583.917 78.6662C584.688 78.188 585.595 77.9489 586.637 77.9489C587.309 77.9489 587.944 78.0578 588.54 78.2756C589.141 78.4886 589.672 78.8201 590.131 79.2699C590.595 79.7197 590.96 80.2926 591.225 80.9886C591.49 81.6799 591.623 82.5038 591.623 83.4602V84.2486H582.681V82.5156H589.158C589.153 82.0232 589.047 81.5852 588.838 81.2017C588.63 80.8134 588.339 80.508 587.965 80.2855C587.596 80.063 587.165 79.9517 586.672 79.9517C586.147 79.9517 585.685 80.0795 585.287 80.3352C584.89 80.5862 584.579 80.9176 584.357 81.3295C584.139 81.7367 584.028 82.1842 584.023 82.6719V84.1847C584.023 84.8191 584.139 85.3636 584.371 85.8182C584.603 86.268 584.927 86.6136 585.344 86.8551C585.761 87.0919 586.248 87.2102 586.807 87.2102C587.181 87.2102 587.52 87.1581 587.823 87.054C588.126 86.9451 588.389 86.7865 588.611 86.5781C588.834 86.3698 589.002 86.1117 589.115 85.804L591.516 86.0739C591.364 86.7083 591.076 87.2623 590.65 87.7358C590.228 88.2045 589.688 88.5691 589.03 88.8295C588.372 89.0852 587.619 89.2131 586.772 89.2131ZM602.42 80.9744L600.076 81.2301C600.01 80.9934 599.894 80.7708 599.728 80.5625C599.567 80.3542 599.349 80.1861 599.075 80.0582C598.8 79.9304 598.464 79.8665 598.066 79.8665C597.531 79.8665 597.081 79.9825 596.717 80.2145C596.357 80.4465 596.179 80.7472 596.184 81.1165C596.179 81.4337 596.295 81.6918 596.532 81.8906C596.773 82.0895 597.171 82.2528 597.725 82.3807L599.586 82.7784C600.618 83.0009 601.385 83.3537 601.887 83.8366C602.394 84.3196 602.649 84.9517 602.654 85.733C602.649 86.4195 602.448 87.0256 602.05 87.5511C601.657 88.072 601.111 88.4792 600.41 88.7727C599.709 89.0663 598.904 89.2131 597.995 89.2131C596.66 89.2131 595.585 88.9337 594.771 88.375C593.956 87.8116 593.471 87.0279 593.315 86.0241L595.822 85.7827C595.935 86.2751 596.177 86.6468 596.546 86.8977C596.915 87.1487 597.396 87.2741 597.988 87.2741C598.599 87.2741 599.089 87.1487 599.458 86.8977C599.832 86.6468 600.019 86.3366 600.019 85.9673C600.019 85.6548 599.898 85.3968 599.657 85.1932C599.42 84.9896 599.051 84.8333 598.549 84.7244L596.688 84.3338C595.642 84.116 594.868 83.7491 594.366 83.233C593.864 82.7121 593.615 82.054 593.62 81.2585C593.615 80.5862 593.798 80.0038 594.167 79.5114C594.541 79.0142 595.059 78.6307 595.722 78.3608C596.39 78.0862 597.159 77.9489 598.031 77.9489C599.309 77.9489 600.315 78.2211 601.049 78.7656C601.788 79.3101 602.245 80.0464 602.42 80.9744ZM610.222 78.0909V80.0795H603.95V78.0909H610.222ZM605.499 75.4773H608.07V85.7188C608.07 86.0644 608.122 86.3295 608.226 86.5142C608.335 86.6941 608.477 86.8172 608.652 86.8835C608.827 86.9498 609.021 86.983 609.234 86.983C609.395 86.983 609.542 86.9711 609.675 86.9474C609.812 86.9238 609.916 86.9025 609.987 86.8835L610.42 88.8935C610.283 88.9408 610.087 88.9929 609.831 89.0497C609.58 89.1065 609.272 89.1397 608.908 89.1491C608.264 89.1681 607.684 89.071 607.168 88.858C606.652 88.6402 606.242 88.304 605.939 87.8494C605.641 87.3949 605.494 86.8267 605.499 86.1449V75.4773Z" fill="black"></path><g filter="url(#filter4_d_13_1171)"><path d="M767.025 29L791.667 35.0737L810.663 51.9033L819.663 75.6334L816.604 100.828L802.187 121.714L779.714 133.509H754.335L731.863 121.714L717.446 100.828L714.387 75.6334L723.386 51.9033L742.383 35.0737L767.025 29Z" fill="#F1F0EE"></path><path d="M743.167 36.5681L767.025 30.6877L790.882 36.5681L809.274 52.862L817.988 75.8368L815.026 100.229L801.068 120.451L779.311 131.87H754.739L732.982 120.451L719.024 100.229L716.062 75.8368L724.775 52.862L743.167 36.5681Z" stroke="#F6A114" stroke-width="3.27734"></path></g><path d="M732.435 89V74.4545H735.07V86.7912H741.476V89H732.435ZM746.788 89.2202C746.097 89.2202 745.474 89.0971 744.92 88.8509C744.371 88.5999 743.936 88.2306 743.614 87.7429C743.296 87.2552 743.138 86.6539 743.138 85.9389C743.138 85.3234 743.251 84.8144 743.479 84.4119C743.706 84.0095 744.016 83.6875 744.409 83.446C744.802 83.2045 745.245 83.0223 745.737 82.8991C746.234 82.7713 746.748 82.679 747.278 82.6222C747.918 82.5559 748.436 82.4967 748.834 82.4446C749.232 82.3878 749.52 82.3026 749.7 82.1889C749.885 82.0705 749.977 81.8883 749.977 81.642V81.5994C749.977 81.0644 749.819 80.6501 749.501 80.3565C749.184 80.063 748.727 79.9162 748.131 79.9162C747.501 79.9162 747.001 80.0535 746.632 80.3281C746.268 80.6027 746.021 80.9271 745.893 81.3011L743.493 80.9602C743.682 80.2973 743.995 79.7434 744.43 79.2983C744.866 78.8485 745.399 78.5123 746.028 78.2898C746.658 78.0625 747.354 77.9489 748.116 77.9489C748.642 77.9489 749.165 78.0104 749.686 78.1335C750.207 78.2566 750.683 78.4602 751.114 78.7443C751.545 79.0237 751.89 79.4048 752.151 79.8878C752.416 80.3707 752.548 80.9744 752.548 81.6989V89H750.077V87.5014H749.991C749.835 87.8045 749.615 88.0885 749.331 88.3537C749.052 88.6141 748.699 88.8248 748.273 88.9858C747.851 89.142 747.357 89.2202 746.788 89.2202ZM747.456 87.331C747.972 87.331 748.42 87.2292 748.798 87.0256C749.177 86.8172 749.468 86.5426 749.672 86.2017C749.88 85.8608 749.984 85.4891 749.984 85.0866V83.8011C749.904 83.8674 749.767 83.929 749.572 83.9858C749.383 84.0426 749.17 84.0923 748.933 84.1349C748.696 84.1776 748.462 84.2154 748.23 84.2486C747.998 84.2817 747.797 84.3101 747.626 84.3338C747.243 84.3859 746.9 84.4711 746.597 84.5895C746.294 84.7079 746.054 84.8736 745.879 85.0866C745.704 85.295 745.616 85.5649 745.616 85.8963C745.616 86.3698 745.789 86.7273 746.135 86.9688C746.481 87.2102 746.921 87.331 747.456 87.331ZM762.087 84.4119V78.0909H764.658V89H762.165V87.0611H762.051C761.805 87.6719 761.4 88.1714 760.837 88.5597C760.278 88.9479 759.589 89.142 758.77 89.142C758.055 89.142 757.423 88.9834 756.874 88.6662C756.329 88.3442 755.903 87.8778 755.595 87.267C755.287 86.6515 755.134 85.9081 755.134 85.0369V78.0909H757.705V84.6392C757.705 85.3305 757.894 85.8797 758.273 86.2869C758.652 86.6941 759.149 86.8977 759.764 86.8977C760.143 86.8977 760.51 86.8054 760.865 86.6207C761.22 86.4361 761.511 86.1615 761.739 85.7969C761.971 85.4276 762.087 84.9659 762.087 84.4119ZM769.873 82.608V89H767.301V78.0909H769.759V79.9446H769.887C770.138 79.3338 770.538 78.8485 771.087 78.4886C771.641 78.1288 772.325 77.9489 773.14 77.9489C773.892 77.9489 774.548 78.1098 775.107 78.4318C775.67 78.7538 776.106 79.2202 776.414 79.831C776.726 80.4418 776.88 81.1828 776.875 82.054V89H774.304V82.4517C774.304 81.7225 774.115 81.152 773.736 80.7401C773.362 80.3281 772.844 80.1222 772.181 80.1222C771.731 80.1222 771.331 80.2216 770.98 80.4205C770.635 80.6146 770.363 80.8963 770.164 81.2656C769.97 81.6349 769.873 82.0824 769.873 82.608ZM784.248 89.2131C783.158 89.2131 782.223 88.974 781.442 88.4957C780.666 88.0175 780.067 87.357 779.645 86.5142C779.229 85.6667 779.02 84.6913 779.02 83.5881C779.02 82.4801 779.233 81.5024 779.659 80.6548C780.086 79.8026 780.687 79.1397 781.463 78.6662C782.245 78.188 783.168 77.9489 784.233 77.9489C785.119 77.9489 785.902 78.1122 786.584 78.4389C787.271 78.7609 787.818 79.2178 788.225 79.8097C788.632 80.3968 788.864 81.0833 788.921 81.8693H786.463C786.364 81.3437 786.127 80.9058 785.753 80.5554C785.384 80.2003 784.889 80.0227 784.269 80.0227C783.743 80.0227 783.282 80.1648 782.884 80.4489C782.486 80.7282 782.176 81.1307 781.953 81.6562C781.736 82.1818 781.627 82.8116 781.627 83.5455C781.627 84.2888 781.736 84.928 781.953 85.4631C782.171 85.9934 782.477 86.4029 782.87 86.6918C783.267 86.9759 783.734 87.1179 784.269 87.1179C784.648 87.1179 784.986 87.0469 785.284 86.9048C785.587 86.758 785.841 86.5473 786.044 86.2727C786.248 85.9981 786.388 85.6643 786.463 85.2713H788.921C788.859 86.0431 788.632 86.7273 788.239 87.3239C787.846 87.9157 787.311 88.3797 786.634 88.7159C785.957 89.0473 785.161 89.2131 784.248 89.2131ZM793.603 82.608V89H791.032V74.4545H793.546V79.9446H793.674C793.93 79.3291 794.325 78.8437 794.86 78.4886C795.4 78.1288 796.086 77.9489 796.92 77.9489C797.677 77.9489 798.338 78.1075 798.901 78.4247C799.465 78.742 799.9 79.206 800.208 79.8168C800.521 80.4276 800.677 81.1733 800.677 82.054V89H798.106V82.4517C798.106 81.7178 797.916 81.1473 797.538 80.7401C797.164 80.3281 796.638 80.1222 795.961 80.1222C795.506 80.1222 795.099 80.2216 794.739 80.4205C794.384 80.6146 794.105 80.8963 793.901 81.2656C793.702 81.6349 793.603 82.0824 793.603 82.608Z" fill="black"></path><defs><filter id="filter0_d_13_1171" x="20.7019" y="30" width="110.646" height="109.879" filterUnits="userSpaceOnUse" color-interpolation-filters="sRGB"><feGaussianBlur stdDeviation="1.3424"></feGaussianBlur></filter><filter id="filter1_d_13_1171" x="198.702" y="30" width="110.646" height="109.879" filterUnits="userSpaceOnUse" color-interpolation-filters="sRGB"><feGaussianBlur stdDeviation="1.3424"></feGaussianBlur></filter><filter id="filter2_d_13_1171" x="369.702" y="29" width="110.646" height="109.879" filterUnits="userSpaceOnUse" color-interpolation-filters="sRGB"><feGaussianBlur stdDeviation="1.3424"></feGaussianBlur></filter><filter id="filter3_d_13_1171" x="535.702" y="29" width="110.646" height="109.879" filterUnits="userSpaceOnUse" color-interpolation-filters="sRGB"><feGaussianBlur stdDeviation="1.3424"></feGaussianBlur></filter><filter id="filter4_d_13_1171" x="711.702" y="29" width="110.646" height="109.879" filterUnits="userSpaceOnUse" color-interpolation-filters="sRGB"><feGaussianBlur stdDeviation="1.3424"></feGaussianBlur></filter></defs></svg>